<svg width="210" height="188" viewBox="0 0 210 188" fill="none" xmlns="http://www.w3.org/2000/svg">
<path d="M114.969 17.731H80.5995C78.9049 17.731 77.531 19.1044 77.531 20.7995C77.531 22.4945 78.9049 23.868 80.5995 23.868H114.969C116.664 23.868 118.037 22.4945 118.037 20.7995C118.037 19.1044 116.663 17.731 114.969 17.731Z" fill="#5D48E0"/>
<path d="M114.969 27.9146H97.5722C95.8775 27.9146 94.5037 29.288 94.5037 30.9831C94.5037 32.6781 95.8775 34.0516 97.5722 34.0516H114.969C116.664 34.0516 118.038 32.6781 118.038 30.9831C118.038 29.288 116.664 27.9146 114.969 27.9146Z" fill="#5D48E0"/>
<path d="M114.969 38.0977H97.5722C95.8775 38.0977 94.5037 39.4711 94.5037 41.1662C94.5037 42.8612 95.8775 44.2347 97.5722 44.2347H114.969C116.664 44.2347 118.038 42.8612 118.038 41.1662C118.038 39.4711 116.664 38.0977 114.969 38.0977Z" fill="#5D48E0"/>
<path d="M19.0254 31.6195C19.0254 39.9794 25.8269 46.7809 34.1868 46.7809C42.5467 46.7809 49.3482 39.9794 49.3482 31.6195C49.3482 23.2596 42.5471 16.4585 34.1868 16.4585C25.8265 16.4585 19.0254 23.26 19.0254 31.6195ZM34.1868 22.5956C39.1627 22.5956 43.2111 26.644 43.2111 31.6199C43.2111 36.5958 39.1627 40.6443 34.1868 40.6443C29.2109 40.6443 25.1625 36.5958 25.1625 31.6195C25.1625 26.6432 29.2109 22.5956 34.1868 22.5956Z" fill="#5D48E0"/>
<path d="M52.1145 105.673C52.1145 111.693 57.0127 116.591 63.0332 116.591C69.0536 116.591 73.9514 111.693 73.9514 105.673C73.9514 99.6521 69.0536 94.7539 63.0332 94.7539C57.0127 94.7539 52.1145 99.6525 52.1145 105.673ZM67.8143 105.673C67.8143 108.309 65.6696 110.454 63.0332 110.454C60.3967 110.454 58.2516 108.309 58.2516 105.673C58.2516 103.036 60.3967 100.891 63.0332 100.891C65.6696 100.891 67.8143 103.036 67.8143 105.673Z" fill="#5D48E0"/>
<path d="M151.501 114.469C153.196 114.469 154.57 113.096 154.57 111.401C154.57 109.706 153.196 108.332 151.501 108.332H137.872C136.177 108.332 134.804 109.706 134.804 111.401C134.804 113.096 136.177 114.469 137.872 114.469H151.501Z" fill="#5D48E0"/>
<path d="M118.307 120.312C118.307 122.007 119.68 123.38 121.375 123.38H151.502C153.197 123.38 154.57 122.007 154.57 120.312C154.57 118.617 153.197 117.243 151.502 117.243H121.375C119.681 117.243 118.307 118.617 118.307 120.312Z" fill="#5D48E0"/>
<path d="M204.283 77.0615C207.148 77.0615 209.478 74.7306 209.478 71.8658V32.0927C209.478 29.228 207.148 26.8971 204.283 26.8971H137.062V5.19564C137.062 2.33086 134.731 0 131.867 0H39.2772C37.5826 0 36.2087 1.37347 36.2087 3.06853C36.2087 4.76359 37.5826 6.13706 39.2772 6.13706H130.925V26.8967H129.618C126.754 26.8967 124.423 29.2276 124.423 32.0923V71.8654C124.423 74.7302 126.754 77.0611 129.618 77.0611H130.925V81.5918H95.7382C94.0435 81.5918 92.6697 82.9653 92.6697 84.6604C92.6697 86.3554 94.0435 87.7289 95.7382 87.7289H168.272V144.717H42.5487V87.7293H81.4184C83.113 87.7293 84.4869 86.3558 84.4869 84.6608C84.4869 82.9657 83.113 81.5922 81.4184 81.5922H41.6072C38.7425 81.5922 36.4116 83.9231 36.4116 86.7879V145.659C36.4116 148.523 38.7425 150.854 41.6072 150.854H71.4808V164.83C71.4808 167.694 73.8117 170.025 76.6765 170.025H130.925V181.425H39.4323L6.13706 148.13V6.13706H24.9574C26.652 6.13706 28.0259 4.76359 28.0259 3.06853C28.0259 1.37347 26.652 0 24.9574 0H5.19564C2.33086 0 0 2.33086 0 5.19564V182.367C0 185.231 2.33086 187.562 5.19564 187.562H131.866C134.731 187.562 137.062 185.231 137.062 182.367V170.025H178.384C180.079 170.025 181.452 168.652 181.452 166.957C181.452 165.262 180.079 163.888 178.384 163.888H77.6179V150.854H169.214C172.078 150.854 174.409 148.523 174.409 145.659V126.706L203.341 109.265V163.888H192.704C191.009 163.888 189.635 165.262 189.635 166.957C189.635 168.652 191.009 170.025 192.704 170.025H204.283C207.148 170.025 209.478 167.694 209.478 164.83V105.96C209.478 103.095 207.148 100.764 204.283 100.764H174.409V86.7883C174.409 83.9235 172.078 81.5927 169.214 81.5927H137.062V77.0619L204.283 77.0615ZM30.7532 181.425H6.13706V156.809L30.7532 181.425ZM174.409 106.901H195.376L174.409 119.54V106.901ZM130.559 33.0338H203.341V70.924H130.559V33.0338Z" fill="#5D48E0"/>
<path d="M148.625 42.0659C143.529 42.0659 139.383 46.2121 139.383 51.3079C139.383 56.4041 143.529 60.5503 148.625 60.5503C153.721 60.5503 157.867 56.4041 157.867 51.3079C157.867 46.2117 153.721 42.0659 148.625 42.0659ZM148.625 54.4129C146.913 54.4129 145.52 53.0198 145.52 51.3075C145.52 49.5953 146.913 48.2026 148.625 48.2026C150.337 48.2026 151.73 49.5953 151.73 51.3075C151.73 53.0198 150.337 54.4129 148.625 54.4129Z" fill="#5D48E0"/>
<path d="M192.333 43.5479H182.949C181.254 43.5479 179.881 44.9213 179.881 46.6164C179.881 48.3114 181.254 49.6849 182.949 49.6849H192.333C194.028 49.6849 195.402 48.3114 195.402 46.6164C195.402 44.9213 194.028 43.5479 192.333 43.5479Z" fill="#5D48E0"/>
<path d="M192.334 53.9194H171.591C169.896 53.9194 168.522 55.2929 168.522 56.988C168.522 58.683 169.896 60.0565 171.591 60.0565H192.334C194.029 60.0565 195.403 58.683 195.403 56.988C195.403 55.2929 194.029 53.9194 192.334 53.9194Z" fill="#5D48E0"/>
</svg>
