<svg width="208" height="212" viewBox="0 0 208 212" fill="none" xmlns="http://www.w3.org/2000/svg">
<path d="M121.333 183.733H114.4V149.76C114.4 148.841 114.035 147.959 113.385 147.309C112.735 146.659 111.853 146.293 110.933 146.293C110.014 146.293 109.132 146.659 108.482 147.309C107.832 147.959 107.467 148.841 107.467 149.76V183.733H17.3333V114.4H46.176C47.0954 114.4 47.9772 114.035 48.6273 113.385C49.2774 112.735 49.6427 111.853 49.6427 110.933C49.6427 110.014 49.2774 109.132 48.6273 108.482C47.9772 107.832 47.0954 107.467 46.176 107.467H13.8667C12.9472 107.467 12.0655 107.832 11.4154 108.482C10.7652 109.132 10.4 110.014 10.4 110.933V183.733H3.46667C2.54725 183.733 1.66549 184.099 1.01536 184.749C0.365237 185.399 0 186.281 0 187.2V194.133C0 198.731 1.82619 203.139 5.07682 206.39C8.32745 209.641 12.7362 211.467 17.3333 211.467H107.467C112.064 211.467 116.473 209.641 119.723 206.39C122.974 203.139 124.8 198.731 124.8 194.133V187.2C124.8 186.281 124.435 185.399 123.785 184.749C123.135 184.099 122.253 183.733 121.333 183.733ZM117.867 194.133C117.867 196.892 116.771 199.537 114.821 201.487C112.87 203.438 110.225 204.533 107.467 204.533H100.533V201.067C100.533 200.147 100.168 199.266 99.518 198.615C98.8679 197.965 97.9861 197.6 97.0667 197.6C96.1472 197.6 95.2655 197.965 94.6154 198.615C93.9652 199.266 93.6 200.147 93.6 201.067V204.533H31.2V201.067C31.2 200.147 30.8348 199.266 30.1846 198.615C29.5345 197.965 28.6528 197.6 27.7333 197.6C26.8139 197.6 25.9322 197.965 25.282 198.615C24.6319 199.266 24.2667 200.147 24.2667 201.067V204.533H17.3333C14.5751 204.533 11.9298 203.438 9.97942 201.487C8.02905 199.537 6.93333 196.892 6.93333 194.133V190.667H117.867V194.133Z" fill="#5D48E0"/>
<path d="M180.267 24.2668H187.2C188.12 24.2668 189.001 23.9016 189.652 23.2515C190.302 22.6013 190.667 21.7196 190.667 20.8002C190.667 19.8807 190.302 18.999 189.652 18.3489C189.001 17.6987 188.12 17.3335 187.2 17.3335H180.267C177.509 17.3335 174.863 18.4292 172.913 20.3796C170.963 22.33 169.867 24.9752 169.867 27.7335V31.2002H166.4C165.481 31.2002 164.599 31.5654 163.949 32.2155C163.299 32.8657 162.934 33.7474 162.934 34.6668C162.934 35.5862 163.299 36.468 163.949 37.1181C164.599 37.7683 165.481 38.1335 166.4 38.1335H169.867V48.5335C169.867 49.4529 170.232 50.3347 170.882 50.9848C171.532 51.6349 172.414 52.0002 173.334 52.0002C174.253 52.0002 175.135 51.6349 175.785 50.9848C176.435 50.3347 176.8 49.4529 176.8 48.5335V38.1335H180.267C181.186 38.1335 182.068 37.7683 182.718 37.1181C183.368 36.468 183.734 35.5862 183.734 34.6668C183.734 33.7474 183.368 32.8657 182.718 32.2155C182.068 31.5654 181.186 31.2002 180.267 31.2002H176.8V27.7335C176.8 26.8141 177.165 25.9323 177.816 25.2822C178.466 24.6321 179.348 24.2668 180.267 24.2668Z" fill="#5D48E0"/>
<path d="M197.6 3.4668H156C153.241 3.4668 150.596 4.56251 148.646 6.51289C146.695 8.46326 145.6 11.1085 145.6 13.8668V20.8001C145.6 21.7195 145.965 22.6013 146.615 23.2514C147.265 23.9016 148.147 24.2668 149.066 24.2668C149.986 24.2668 150.867 23.9016 151.518 23.2514C152.168 22.6013 152.533 21.7195 152.533 20.8001V13.8668C152.533 12.9474 152.898 12.0656 153.548 11.4155C154.198 10.7654 155.08 10.4001 156 10.4001H197.6C198.519 10.4001 199.401 10.7654 200.051 11.4155C200.701 12.0656 201.066 12.9474 201.066 13.8668V55.4668C201.066 56.3862 200.701 57.268 200.051 57.9181C199.401 58.5682 198.519 58.9335 197.6 58.9335H156C155.08 58.9335 154.198 58.5682 153.548 57.9181C152.898 57.268 152.533 56.3862 152.533 55.4668V34.6668C152.533 33.7474 152.168 32.8656 151.518 32.2155C150.867 31.5654 149.986 31.2001 149.066 31.2001C148.147 31.2001 147.265 31.5654 146.615 32.2155C145.965 32.8656 145.6 33.7474 145.6 34.6668V55.4668C145.6 58.225 146.695 60.8703 148.646 62.8207C150.596 64.7711 153.241 65.8668 156 65.8668H197.6C200.358 65.8668 203.003 64.7711 204.954 62.8207C206.904 60.8703 208 58.225 208 55.4668V13.8668C208 11.1085 206.904 8.46326 204.954 6.51289C203.003 4.56251 200.358 3.4668 197.6 3.4668Z" fill="#5D48E0"/>
<path d="M162.934 142.134C162.934 144.876 163.747 147.557 165.271 149.837C166.794 152.118 168.96 153.895 171.494 154.945C174.028 155.994 176.816 156.269 179.506 155.734C182.195 155.199 184.666 153.878 186.605 151.939C188.545 149.999 189.865 147.529 190.4 144.839C190.936 142.149 190.661 139.361 189.611 136.827C188.562 134.293 186.785 132.127 184.504 130.604C182.224 129.08 179.543 128.267 176.8 128.267C173.123 128.267 169.596 129.728 166.995 132.328C164.395 134.929 162.934 138.456 162.934 142.134ZM183.734 142.134C183.734 143.505 183.327 144.845 182.565 145.985C181.803 147.126 180.72 148.014 179.454 148.539C178.187 149.064 176.793 149.201 175.448 148.934C174.103 148.666 172.867 148.006 171.898 147.036C170.928 146.066 170.268 144.831 170 143.486C169.733 142.141 169.87 140.747 170.395 139.48C170.919 138.213 171.808 137.13 172.948 136.369C174.088 135.607 175.429 135.2 176.8 135.2C178.639 135.2 180.403 135.931 181.703 137.231C183.003 138.531 183.734 140.295 183.734 142.134Z" fill="#5D48E0"/>
<path d="M197.6 110.933H156C153.241 110.933 150.596 112.029 148.646 113.979C146.695 115.93 145.6 118.575 145.6 121.333V162.933C145.6 165.692 146.695 168.337 148.646 170.287C150.596 172.238 153.241 173.333 156 173.333H197.6C200.358 173.333 203.003 172.238 204.954 170.287C206.904 168.337 208 165.692 208 162.933V156C208 155.081 207.634 154.199 206.984 153.549C206.334 152.899 205.452 152.533 204.533 152.533C203.614 152.533 202.732 152.899 202.082 153.549C201.432 154.199 201.066 155.081 201.066 156V162.933C201.066 163.853 200.701 164.735 200.051 165.385C199.401 166.035 198.519 166.4 197.6 166.4H156C155.08 166.4 154.198 166.035 153.548 165.385C152.898 164.735 152.533 163.853 152.533 162.933V121.333C152.533 120.414 152.898 119.532 153.548 118.882C154.198 118.232 155.08 117.867 156 117.867H197.6C198.519 117.867 199.401 118.232 200.051 118.882C200.701 119.532 201.066 120.414 201.066 121.333V142.133C201.066 143.053 201.432 143.935 202.082 144.585C202.732 145.235 203.614 145.6 204.533 145.6C205.452 145.6 206.334 145.235 206.984 144.585C207.634 143.935 208 143.053 208 142.133V121.333C208 118.575 206.904 115.93 204.954 113.979C203.003 112.029 200.358 110.933 197.6 110.933Z" fill="#5D48E0"/>
<path d="M77.8959 44.5466C78.4476 44.8885 79.0842 45.0687 79.7333 45.0666C80.276 45.0633 80.8103 44.9327 81.2933 44.6853L102.093 34.2853C102.661 33.9943 103.138 33.5524 103.47 33.008C103.803 32.4636 103.979 31.838 103.979 31.1999C103.979 30.5619 103.803 29.9362 103.47 29.3919C103.138 28.8475 102.661 28.4055 102.093 28.1146L81.2933 17.7146C80.7655 17.4487 80.1786 17.3221 79.5882 17.3468C78.9977 17.3715 78.4234 17.5468 77.9198 17.8559C77.4162 18.165 76.9999 18.5978 76.7106 19.113C76.4212 19.6283 76.2684 20.209 76.2666 20.7999V41.5999C76.2654 42.1891 76.4144 42.7688 76.6995 43.2844C76.9846 43.7999 77.3963 44.2344 77.8959 44.5466ZM83.1999 26.4159L92.7679 31.1999L83.1999 35.9839V26.4159Z" fill="#5D48E0"/>
<path d="M86.6668 62.4C92.8376 62.4 98.8698 60.5702 104.001 57.1419C109.131 53.7136 113.13 48.8408 115.492 43.1397C117.853 37.4387 118.471 31.1654 117.267 25.1132C116.063 19.061 113.092 13.5017 108.729 9.13828C104.365 4.77488 98.8058 1.80337 92.7536 0.599513C86.7014 -0.604346 80.4281 0.0135183 74.7271 2.37497C69.026 4.73643 64.1532 8.73541 60.7249 13.8662C57.2966 18.997 55.4668 25.0292 55.4668 31.2C55.4668 39.4748 58.7539 47.4106 64.6051 53.2617C70.4562 59.1129 78.392 62.4 86.6668 62.4ZM86.6668 6.93335C91.4663 6.93335 96.158 8.35656 100.149 11.023C104.139 13.6895 107.25 17.4794 109.086 21.9136C110.923 26.3477 111.404 31.2269 110.467 35.9342C109.531 40.6415 107.22 44.9654 103.826 48.3591C100.432 51.7529 96.1083 54.0641 91.401 55.0004C86.6937 55.9367 81.8145 55.4562 77.3803 53.6195C72.9462 51.7828 69.1563 48.6725 66.4898 44.6819C63.8233 40.6912 62.4001 35.9995 62.4001 31.2C62.4001 24.7641 64.9568 18.5918 69.5077 14.0409C74.0586 9.49001 80.2309 6.93335 86.6668 6.93335Z" fill="#5D48E0"/>
<path d="M121.333 76.2668C121.871 76.2668 122.402 76.1415 122.883 75.9008C123.365 75.6601 123.783 75.3107 124.106 74.8801L134.506 61.0135C135.058 60.2779 135.295 59.3534 135.165 58.4432C135.035 57.533 134.548 56.7118 133.813 56.1601C133.077 55.6085 132.153 55.3716 131.243 55.5017C130.332 55.6317 129.511 56.1179 128.96 56.8535L118.56 70.7201C118.008 71.4557 117.771 72.3802 117.901 73.2904C118.031 74.2006 118.517 75.0218 119.253 75.5735C119.853 76.0235 120.583 76.2668 121.333 76.2668Z" fill="#5D48E0"/>
<path d="M128.96 88.7467C129.283 89.1773 129.702 89.5267 130.183 89.7674C130.664 90.0081 131.195 90.1334 131.733 90.1334C132.483 90.1334 133.213 89.8901 133.813 89.4401L147.68 79.0401C148.415 78.4884 148.902 77.6672 149.032 76.757C149.162 75.8468 148.925 74.9223 148.373 74.1867C147.822 73.4512 147 72.9649 146.09 72.8349C145.18 72.7049 144.255 72.9418 143.52 73.4934L129.653 83.8934C128.918 84.4451 128.431 85.2663 128.301 86.1765C128.171 87.0866 128.408 88.0112 128.96 88.7467Z" fill="#5D48E0"/>
<path d="M162.934 96.3735C162.852 95.9139 162.678 95.4757 162.422 95.0851C162.166 94.6946 161.834 94.3598 161.445 94.1008C161.057 93.8418 160.62 93.6639 160.161 93.5779C159.702 93.4919 159.23 93.4994 158.774 93.6002L141.441 97.0668C140.986 97.1123 140.544 97.2471 140.141 97.4634C139.738 97.6796 139.381 97.9732 139.091 98.3273C138.506 99.0425 138.229 99.9607 138.321 100.88C138.413 101.8 138.866 102.645 139.581 103.23C140.297 103.815 141.215 104.092 142.134 104H142.828L160.161 100.533C160.621 100.451 161.059 100.277 161.449 100.021C161.84 99.7649 162.175 99.4327 162.434 99.0442C162.693 98.6557 162.871 98.2189 162.957 97.7599C163.043 97.301 163.035 96.8294 162.934 96.3735Z" fill="#5D48E0"/>
<path d="M3.46667 97.0667H45.0667C45.9861 97.0667 46.8678 96.7015 47.518 96.0514C48.1681 95.4013 48.5333 94.5195 48.5333 93.6001V38.1334C48.5333 37.214 48.1681 36.3322 47.518 35.6821C46.8678 35.032 45.9861 34.6667 45.0667 34.6667H3.46667C2.54725 34.6667 1.66549 35.032 1.01536 35.6821C0.365237 36.3322 0 37.214 0 38.1334V93.6001C0 94.5195 0.365237 95.4013 1.01536 96.0514C1.66549 96.7015 2.54725 97.0667 3.46667 97.0667ZM6.93333 41.6001H41.6V90.1334H6.93333V41.6001Z" fill="#5D48E0"/>
<path d="M31.1998 48.5334H24.2665C23.3471 48.5334 22.4653 48.8987 21.8152 49.5488C21.165 50.1989 20.7998 51.0807 20.7998 52.0001C20.7998 52.9195 21.165 53.8013 21.8152 54.4514C22.4653 55.1015 23.3471 55.4668 24.2665 55.4668H31.1998C32.1192 55.4668 33.001 55.1015 33.6511 54.4514C34.3012 53.8013 34.6665 52.9195 34.6665 52.0001C34.6665 51.0807 34.3012 50.1989 33.6511 49.5488C33.001 48.8987 32.1192 48.5334 31.1998 48.5334Z" fill="#5D48E0"/>
<path d="M31.1995 62.4001H17.3329C16.4135 62.4001 15.5317 62.7654 14.8816 63.4155C14.2314 64.0656 13.8662 64.9474 13.8662 65.8668C13.8662 66.7862 14.2314 67.668 14.8816 68.3181C15.5317 68.9682 16.4135 69.3335 17.3329 69.3335H31.1995C32.119 69.3335 33.0007 68.9682 33.6508 68.3181C34.301 67.668 34.6662 66.7862 34.6662 65.8668C34.6662 64.9474 34.301 64.0656 33.6508 63.4155C33.0007 62.7654 32.119 62.4001 31.1995 62.4001Z" fill="#5D48E0"/>
<path d="M31.1995 76.2668H17.3329C16.4135 76.2668 15.5317 76.6321 14.8816 77.2822C14.2314 77.9323 13.8662 78.8141 13.8662 79.7335C13.8662 80.6529 14.2314 81.5347 14.8816 82.1848C15.5317 82.8349 16.4135 83.2002 17.3329 83.2002H31.1995C32.119 83.2002 33.0007 82.8349 33.6508 82.1848C34.301 81.5347 34.6662 80.6529 34.6662 79.7335C34.6662 78.8141 34.301 77.9323 33.6508 77.2822C33.0007 76.6321 32.119 76.2668 31.1995 76.2668Z" fill="#5D48E0"/>
<path d="M118.282 96.0268C118.054 95.6307 117.751 95.2834 117.389 95.0045C117.027 94.7257 116.614 94.5209 116.173 94.4018C115.732 94.2827 115.272 94.2516 114.819 94.3104C114.366 94.3691 113.929 94.5165 113.533 94.7441C113.137 94.9717 112.789 95.2751 112.51 95.637C112.232 95.9989 112.027 96.4121 111.908 96.8531C111.789 97.2941 111.758 97.7543 111.816 98.2073C111.875 98.6603 112.022 99.0974 112.25 99.4934L127.538 125.944L72.0714 146.744C72.0714 146.744 72.0714 146.744 71.8287 146.744H71.5514L62.5381 151.944L56.5407 155.411C55.7512 155.867 54.8793 156.163 53.9751 156.282C53.0709 156.401 52.1522 156.341 51.2714 156.104C49.502 155.626 47.9939 154.467 47.0767 152.88L40.1434 140.885C39.3277 139.316 39.1426 137.494 39.6259 135.793C40.1093 134.092 41.2245 132.64 42.7434 131.733L54.7381 124.8L63.4047 139.811C63.7102 140.34 64.15 140.779 64.6796 141.083C65.2092 141.387 65.8099 141.547 66.4207 141.544C67.0304 141.547 67.63 141.388 68.1589 141.085C68.6878 140.782 69.1274 140.344 69.4333 139.817C69.7392 139.289 69.9006 138.691 69.9012 138.081C69.9018 137.471 69.7416 136.872 69.4367 136.344L60.4927 120.883L103.999 85.0028L105.421 87.4641C105.648 87.8602 105.952 88.2075 106.314 88.4863C106.676 88.7651 107.089 88.97 107.53 89.0891C107.971 89.2082 108.431 89.2392 108.884 89.1805C109.337 89.1218 109.774 88.9744 110.17 88.7468C110.566 88.5192 110.913 88.2157 111.192 87.8539C111.471 87.492 111.676 87.0788 111.795 86.6378C111.914 86.1967 111.945 85.7366 111.886 85.2836C111.828 84.8305 111.68 84.3935 111.453 83.9974L107.986 78.0001C107.732 77.5658 107.386 77.1919 106.973 76.9046C106.56 76.6172 106.09 76.4233 105.594 76.3361C105.096 76.2422 104.583 76.2587 104.092 76.3845C103.601 76.5103 103.143 76.7423 102.751 77.0641L54.2181 117.069L39.4501 125.597C36.7998 127.141 34.7362 129.52 33.582 132.361C32.4278 135.203 32.2482 138.347 33.0714 141.301L29.6047 143.277C27.8186 144.303 26.3772 145.836 25.4634 147.682C24.5495 149.528 24.2044 151.604 24.4718 153.646C24.7391 155.688 25.6069 157.605 26.9651 159.154C28.3233 160.702 30.1107 161.813 32.1007 162.344C32.983 162.578 33.8921 162.694 34.8047 162.691C36.6285 162.683 38.4194 162.206 40.0047 161.304L43.4714 159.328C45.1367 161.048 47.231 162.293 49.5381 162.933C50.7227 163.265 51.948 163.428 53.1781 163.419C55.6148 163.424 58.0086 162.778 60.1114 161.547L63.1274 159.813L70.0607 171.843C71.4386 174.225 73.7046 175.964 76.3622 176.679C79.0198 177.394 81.8524 177.026 84.2394 175.656C85.4236 174.974 86.4617 174.065 87.2944 172.981C88.127 171.897 88.7379 170.66 89.0921 169.34C89.4462 168.02 89.5367 166.643 89.3584 165.288C89.18 163.933 88.7364 162.626 88.0527 161.443L81.7434 150.453L133.743 130.936C134.215 130.759 134.642 130.481 134.995 130.122C135.349 129.762 135.619 129.331 135.789 128.856C135.957 128.387 136.023 127.888 135.981 127.391C135.939 126.894 135.791 126.413 135.546 125.979L118.282 96.0268ZM36.3994 155.272C36.0046 155.5 35.5687 155.648 35.1166 155.708C34.6645 155.767 34.2051 155.737 33.7647 155.619C32.8766 155.388 32.1161 154.815 31.6501 154.024C31.4218 153.629 31.2738 153.193 31.2143 152.741C31.1548 152.289 31.1851 151.83 31.3034 151.389C31.4218 150.947 31.6267 150.532 31.9064 150.169C32.186 149.806 32.5349 149.502 32.9327 149.275L35.9487 147.541L39.4154 153.539L36.3994 155.272ZM82.0207 164.979C82.249 165.374 82.3971 165.809 82.4565 166.262C82.516 166.714 82.4857 167.173 82.3674 167.613C82.1202 168.495 81.5345 169.242 80.7381 169.693C79.9463 170.148 79.0069 170.272 78.1242 170.039C77.2414 169.805 76.4865 169.232 76.0234 168.445L69.0901 156.416L74.8447 153.123H75.1221L82.0207 164.979Z" fill="#5D48E0"/>
</svg>
