<svg width="79" height="78" viewBox="0 0 79 78" fill="none" xmlns="http://www.w3.org/2000/svg">
<rect x="2.40135" y="1.55369" width="74.5774" height="74.5774" rx="6.48697" stroke="white" stroke-width="3.10739"/>
<path d="M57.6883 24.8759C56.1609 25.9533 54.4697 26.7774 52.6799 27.3163C51.7193 26.2118 50.4426 25.4289 49.0226 25.0736C47.6025 24.7183 46.1076 24.8076 44.74 25.3296C43.3724 25.8516 42.1981 26.781 41.3759 27.9921C40.5537 29.2033 40.1234 30.6377 40.143 32.1014V33.6964C37.3399 33.7691 34.5624 33.1474 32.0578 31.8868C29.5532 30.6261 27.3992 28.7656 25.7877 26.4709C25.7877 26.4709 19.4076 40.8262 33.7629 47.2063C30.4779 49.4361 26.5647 50.5542 22.5977 50.3964C36.9529 58.3715 54.4982 50.3964 54.4982 32.0535C54.4968 31.6092 54.4541 31.1661 54.3706 30.7297C55.9985 29.1243 57.1473 27.0973 57.6883 24.8759Z" fill="white"/>
</svg>
