<svg width="208" height="209" viewBox="0 0 208 209" fill="none" xmlns="http://www.w3.org/2000/svg">
<path d="M192.971 78.1751C191.716 78.1751 190.701 77.1605 190.701 75.9048V62.8684C190.701 61.6127 191.716 60.5981 192.971 60.5981C194.227 60.5981 195.242 61.6128 195.242 62.8684V75.9048C195.242 77.1604 194.227 78.1751 192.971 78.1751Z" fill="#5D48E0" stroke="#5D48E0"/>
<path d="M192.971 101.445C191.716 101.445 190.701 100.43 190.701 99.1748V86.1384C190.701 84.8828 191.716 83.8682 192.971 83.8682C194.227 83.8682 195.242 84.8828 195.242 86.1384V99.1748C195.242 100.43 194.227 101.445 192.971 101.445Z" fill="#5D48E0" stroke="#5D48E0"/>
<path d="M192.971 124.715C191.716 124.715 190.701 123.7 190.701 122.445V109.408C190.701 108.153 191.716 107.138 192.971 107.138C194.227 107.138 195.242 108.153 195.242 109.408V122.445C195.242 123.7 194.227 124.715 192.971 124.715Z" fill="#5D48E0" stroke="#5D48E0"/>
<path d="M192.971 148.017C191.716 148.017 190.701 147.003 190.701 145.747V132.711C190.701 131.455 191.716 130.44 192.971 130.44C194.227 130.44 195.242 131.455 195.242 132.711V145.747C195.242 147.003 194.227 148.017 192.971 148.017Z" fill="#5D48E0" stroke="#5D48E0"/>
<path d="M192.971 171.287C191.716 171.287 190.701 170.273 190.701 169.017V155.981C190.701 154.725 191.716 153.71 192.971 153.71C194.227 153.71 195.242 154.725 195.242 155.981V169.017C195.242 170.273 194.227 171.287 192.971 171.287Z" fill="#5D48E0" stroke="#5D48E0"/>
<path d="M195.242 52.6021C195.242 53.8577 194.227 54.8723 192.971 54.8723C191.716 54.8723 190.701 53.8577 190.701 52.6021V39.5657C190.701 38.31 191.716 37.2954 192.971 37.2954C194.227 37.2954 195.242 38.31 195.242 39.5657V52.6021Z" fill="#5D48E0" stroke="#5D48E0"/>
<path d="M201.543 23.1834H202.043V22.6834V5.54048V5.04048H201.543H184.4H183.9V5.54048V22.6834V23.1834H184.4H201.543ZM181.63 0.5H204.313C205.569 0.5 206.583 1.5146 206.583 2.77024V25.4536C206.583 26.7093 205.569 27.7239 204.313 27.7239H181.63C180.374 27.7239 179.359 26.7093 179.359 25.4536V2.77024C179.359 1.5146 180.374 0.5 181.63 0.5Z" fill="#5D48E0" stroke="#5D48E0"/>
<path d="M201.543 203.542H202.043V203.042V185.899V185.399H201.543H184.4H183.9V185.899V203.042V203.542H184.4H201.543ZM181.63 180.859H204.313C205.569 180.859 206.583 181.873 206.583 183.129V205.813C206.583 207.068 205.569 208.083 204.313 208.083H181.63C180.374 208.083 179.359 207.068 179.359 205.813V183.129C179.359 181.873 180.374 180.859 181.63 180.859Z" fill="#5D48E0" stroke="#5D48E0"/>
<path d="M51.8526 16.3823H38.8161C37.5605 16.3823 36.5459 15.3677 36.5459 14.112C36.5459 12.8564 37.5605 11.8418 38.8161 11.8418H51.8526C53.1082 11.8418 54.1228 12.8564 54.1228 14.112C54.1228 15.3677 53.1082 16.3823 51.8526 16.3823Z" fill="#5D48E0" stroke="#5D48E0"/>
<path d="M59.8482 14.1227L59.8483 14.1227V14.112C59.8483 12.8564 60.8629 11.8418 62.1185 11.8418H75.155C76.4106 11.8418 77.4252 12.8564 77.4252 14.112C77.4252 15.3677 76.4106 16.3823 75.155 16.3823H62.1185C60.8243 16.3823 59.8218 15.3641 59.8482 14.1227Z" fill="#5D48E0" stroke="#5D48E0"/>
<path d="M98.4248 16.3823H85.3884C84.1328 16.3823 83.1182 15.3677 83.1182 14.112C83.1182 12.8564 84.1328 11.8418 85.3884 11.8418H98.4248C99.6805 11.8418 100.695 12.8564 100.695 14.112C100.695 15.3677 99.6805 16.3823 98.4248 16.3823Z" fill="#5D48E0" stroke="#5D48E0"/>
<path d="M121.695 16.3823H108.659C107.403 16.3823 106.389 15.3677 106.389 14.112C106.389 12.8564 107.403 11.8418 108.659 11.8418H121.695C122.951 11.8418 123.966 12.8564 123.966 14.112C123.966 15.3677 122.951 16.3823 121.695 16.3823Z" fill="#5D48E0" stroke="#5D48E0"/>
<path d="M144.965 16.3823H131.928C130.673 16.3823 129.658 15.3677 129.658 14.112C129.658 12.8564 130.673 11.8418 131.928 11.8418H144.965C146.221 11.8418 147.235 12.8564 147.235 14.112C147.235 15.3677 146.221 16.3823 144.965 16.3823Z" fill="#5D48E0" stroke="#5D48E0"/>
<path d="M168.268 16.3823H155.231C153.976 16.3823 152.961 15.3677 152.961 14.112C152.961 12.8564 153.976 11.8418 155.231 11.8418H168.268C169.523 11.8418 170.538 12.8564 170.538 14.112C170.538 15.3677 169.523 16.3823 168.268 16.3823Z" fill="#5D48E0" stroke="#5D48E0"/>
<path d="M38.8161 192.201H51.8526C53.1082 192.201 54.1228 193.215 54.1228 194.471C54.1228 195.727 53.1082 196.741 51.8526 196.741H38.8161C37.5605 196.741 36.5459 195.727 36.5459 194.471C36.5459 193.215 37.5605 192.201 38.8161 192.201Z" fill="#5D48E0" stroke="#5D48E0"/>
<path d="M62.1189 192.201H75.1553C76.4109 192.201 77.4255 193.215 77.4255 194.471C77.4255 195.727 76.4109 196.741 75.1553 196.741H62.1189C60.8632 196.741 59.8486 195.727 59.8486 194.471C59.8486 193.215 60.8632 192.201 62.1189 192.201Z" fill="#5D48E0" stroke="#5D48E0"/>
<path d="M85.3884 192.201H98.4248C99.6805 192.201 100.695 193.215 100.695 194.471C100.695 195.727 99.6805 196.741 98.4248 196.741H85.3884C84.1328 196.741 83.1182 195.727 83.1182 194.471C83.1182 193.215 84.1328 192.201 85.3884 192.201Z" fill="#5D48E0" stroke="#5D48E0"/>
<path d="M108.659 192.201H121.695C122.951 192.201 123.966 193.215 123.966 194.471C123.966 195.727 122.951 196.741 121.695 196.741H108.659C107.403 196.741 106.389 195.727 106.389 194.471C106.389 193.215 107.403 192.201 108.659 192.201Z" fill="#5D48E0" stroke="#5D48E0"/>
<path d="M131.962 192.201H144.998C146.254 192.201 147.268 193.215 147.268 194.471C147.268 195.727 146.254 196.741 144.998 196.741H131.962C130.706 196.741 129.691 195.727 129.691 194.471C129.691 193.215 130.706 192.201 131.962 192.201Z" fill="#5D48E0" stroke="#5D48E0"/>
<path d="M155.231 192.201H168.268C169.523 192.201 170.538 193.215 170.538 194.471C170.538 195.727 169.523 196.741 168.268 196.741H155.231C153.976 196.741 152.961 195.727 152.961 194.471C152.961 193.215 153.976 192.201 155.231 192.201Z" fill="#5D48E0" stroke="#5D48E0"/>
<path d="M14.112 78.1751C12.8564 78.1751 11.8418 77.1605 11.8418 75.9048V62.8684C11.8418 61.6127 12.8564 60.5981 14.112 60.5981C15.3677 60.5981 16.3823 61.6127 16.3823 62.8684V75.9048C16.3823 77.1605 15.3677 78.1751 14.112 78.1751Z" fill="#5D48E0" stroke="#5D48E0"/>
<path d="M14.112 101.445C12.8564 101.445 11.8418 100.43 11.8418 99.1748V86.1384C11.8418 84.8828 12.8564 83.8682 14.112 83.8682C15.3677 83.8682 16.3823 84.8828 16.3823 86.1384V99.1748C16.3823 100.43 15.3677 101.445 14.112 101.445Z" fill="#5D48E0" stroke="#5D48E0"/>
<path d="M14.112 124.715C12.8564 124.715 11.8418 123.7 11.8418 122.445V109.408C11.8418 108.153 12.8564 107.138 14.112 107.138C15.3677 107.138 16.3823 108.153 16.3823 109.408V122.445C16.3823 123.7 15.3677 124.715 14.112 124.715Z" fill="#5D48E0" stroke="#5D48E0"/>
<path d="M14.112 148.017C12.8564 148.017 11.8418 147.003 11.8418 145.747V132.711C11.8418 131.455 12.8564 130.44 14.112 130.44C15.3677 130.44 16.3823 131.455 16.3823 132.711V145.747C16.3823 147.003 15.3677 148.017 14.112 148.017Z" fill="#5D48E0" stroke="#5D48E0"/>
<path d="M14.112 171.287C12.8564 171.287 11.8418 170.273 11.8418 169.017V155.981C11.8418 154.725 12.8564 153.71 14.112 153.71C15.3677 153.71 16.3823 154.725 16.3823 155.981V169.017C16.3823 170.273 15.3677 171.287 14.112 171.287Z" fill="#5D48E0" stroke="#5D48E0"/>
<path d="M16.3823 52.6021C16.3823 53.8577 15.3677 54.8723 14.112 54.8723C12.8564 54.8723 11.8418 53.8577 11.8418 52.6021V39.5657C11.8418 38.31 12.8564 37.2954 14.112 37.2954C15.3677 37.2954 16.3823 38.31 16.3823 39.5657V52.6021Z" fill="#5D48E0" stroke="#5D48E0"/>
<path d="M22.6834 23.1834H23.1834V22.6834V5.54048V5.04048H22.6834H5.54048H5.04048V5.54048V22.6834V23.1834H5.54048H22.6834ZM2.77024 0.5H25.4536C26.7093 0.5 27.7239 1.5146 27.7239 2.77024V25.4536C27.7239 26.7093 26.7093 27.7239 25.4536 27.7239H2.77024C1.5146 27.7239 0.5 26.7093 0.5 25.4536V2.77024C0.5 1.5146 1.5146 0.5 2.77024 0.5Z" fill="#5D48E0" stroke="#5D48E0"/>
<path d="M22.6834 203.542H23.1834V203.042V185.899V185.399H22.6834H5.54048H5.04048V185.899V203.042V203.542H5.54048H22.6834ZM2.77024 180.859H25.4536C26.7093 180.859 27.7239 181.873 27.7239 183.129V205.813C27.7239 207.068 26.7093 208.083 25.4536 208.083H2.77024C1.5146 208.083 0.5 207.068 0.5 205.813V183.129C0.5 181.873 1.5146 180.859 2.77024 180.859Z" fill="#5D48E0" stroke="#5D48E0"/>
<path d="M83.0143 51.3585L83.0146 51.3587L159.211 127.458L159.212 127.459L175.311 143.655L175.312 143.656C175.74 144.084 175.981 144.674 175.981 145.258C175.981 145.842 175.74 146.432 175.312 146.86L146.078 176.094L146.073 176.1L146.068 176.105C145.653 176.546 145.074 176.763 144.476 176.763C143.888 176.763 143.332 176.552 142.874 176.094L126.921 160.141V160.108L126.774 159.962L50.6089 83.8942C50.3828 83.6681 50.2225 83.3827 50.1105 83.0468L50.0731 82.9348L50.0257 82.8874L36.4244 40.1309L36.4244 40.1309L36.4222 40.1243C36.1618 39.3431 36.3894 38.4597 36.9898 37.8292C37.6093 37.2126 38.486 37.0058 39.277 37.2695L39.277 37.2696L39.2842 37.2719L82.053 50.8121C82.0891 50.8332 82.1313 50.8523 82.1794 50.8658C82.1857 50.8675 82.192 50.8692 82.1983 50.8707C82.5207 50.9821 82.7953 51.1394 83.0143 51.3585ZM81.94 50.7241C81.9379 50.722 81.9372 50.7213 81.9389 50.723L81.9389 50.723C81.9391 50.7232 81.9395 50.7235 81.94 50.7241ZM128.023 154.738L128.376 155.091L128.73 154.737L137.757 145.71L137.758 145.709L154.021 129.414L154.374 129.06L154.02 128.707L81.7657 56.5501L81.412 56.1968L81.0586 56.5506L55.768 81.8738L55.4146 82.2276L55.7684 82.5809L128.023 154.738ZM76.584 54.585L77.166 54.003L76.3813 53.7547L43.008 43.1952L42.0887 42.9043L42.3807 43.8233L52.9728 77.164L53.2216 77.9473L53.8028 77.3661L69.3814 61.7876L76.584 54.585ZM144.123 170.837L144.476 171.191L144.829 170.838L170.153 145.547L170.507 145.193L170.153 144.84L157.964 132.65L157.61 132.297L157.257 132.651L132.357 157.583L132.357 157.583L131.966 157.974L131.613 158.327L131.966 158.681L144.123 170.837Z" fill="#5D48E0" stroke="#5D48E0"/>
<path d="M81.2595 79.3271L81.2596 79.3271L131.906 128.474C132.824 129.365 132.832 130.8 131.971 131.635L131.971 131.635L131.966 131.64C131.502 132.104 130.911 132.341 130.331 132.341C129.778 132.341 129.216 132.132 128.754 131.698C128.753 131.697 128.752 131.696 128.751 131.695L78.1101 82.5855L78.1101 82.5854L78.1047 82.5803C77.2036 81.7322 77.171 80.2932 78.0556 79.3817L78.0557 79.3818L78.0609 79.3762C78.909 78.4751 80.3481 78.4425 81.2595 79.3271Z" fill="#5D48E0" stroke="#5D48E0"/>
<path d="M70.465 169.839L70.4667 169.837C70.4972 169.807 70.5282 169.782 70.5557 169.763C70.5747 169.736 70.599 169.705 70.6293 169.675C70.6294 169.674 70.6295 169.674 70.6297 169.674M70.465 169.839L70.9832 170.028L70.6297 169.674M70.465 169.839L63.7238 176.645C63.723 176.646 63.7222 176.647 63.7214 176.648C62.1218 178.215 60.0655 179.012 57.9794 179.012C55.8849 179.012 53.8015 178.242 52.2419 176.652L52.2382 176.648L31.2824 155.725C29.7445 154.187 28.8867 152.163 28.8867 149.984C28.8867 147.806 29.7445 145.781 31.2824 144.243L31.2826 144.243L63.7757 111.717C64.6559 110.837 66.0993 110.837 66.9795 111.717C67.8597 112.598 67.8597 114.041 66.9795 114.921L66.9793 114.921L34.4862 147.447C33.8073 148.126 33.4272 149.035 33.4272 149.984C33.4272 150.969 33.8093 151.844 34.4862 152.521L34.4865 152.522L55.4423 173.445C55.4423 173.445 55.4424 173.445 55.4425 173.445C56.8437 174.846 59.0829 174.846 60.484 173.445L60.4851 173.444L65.3738 168.522L65.7263 168.168L65.3713 167.815L60.8751 163.351C60.875 163.351 60.8749 163.351 60.8748 163.351C59.9948 162.471 59.9949 161.028 60.8751 160.148C61.7553 159.267 63.1986 159.267 64.0789 160.148L64.0802 160.149L68.5777 164.614L68.9318 164.965L69.2841 164.612L79.8762 153.987L80.2293 153.633L79.875 153.28L71.239 144.677C71.2388 144.677 71.2386 144.676 71.2384 144.676C70.3588 143.796 70.359 142.353 71.239 141.473C72.1193 140.593 73.5626 140.593 74.4428 141.473L74.4435 141.474L83.0801 150.078L83.4337 150.43L83.7866 150.077L92.9447 140.919C93.8249 140.039 95.2683 140.039 96.1485 140.919C97.0287 141.799 97.0287 143.243 96.1485 144.123L85.1327 155.139C85.1023 155.169 85.0778 155.2 85.0588 155.228M70.465 169.839L85.0588 155.228M70.6297 169.674L84.9694 155.302L84.9698 155.301C85.0002 155.271 85.0312 155.247 85.0588 155.228M70.6297 169.674L85.0588 155.228M85.0065 155.317C85.0041 155.322 85.0043 155.321 85.007 155.316L85.0065 155.317ZM85.1487 155.175C85.1483 155.175 85.1479 155.176 85.1475 155.176C85.1524 155.173 85.1534 155.173 85.1487 155.175ZM70.6456 169.711L70.6445 169.711C70.6493 169.709 70.6503 169.708 70.6456 169.711Z" fill="#5D48E0" stroke="#5D48E0"/>
<path d="M154.878 31.935L154.878 31.9342C151.716 28.7727 146.558 28.7726 143.396 31.9338L143.396 31.9342L110.903 64.4923L110.902 64.4927C110.022 65.3729 110.022 66.8163 110.902 67.6965C111.783 68.5767 113.226 68.5767 114.106 67.6966C114.106 67.6966 114.106 67.6965 114.106 67.6965L146.599 35.1384L146.599 35.138C148.007 33.7308 150.243 33.7772 151.636 35.1332L151.641 35.1377L151.641 35.1378L172.597 56.0612L172.597 56.0615C173.998 57.4626 173.998 59.7347 172.597 61.1358L167.709 66.0245L167.355 66.378L167.001 66.0245L158.365 57.3878C157.485 56.5076 156.041 56.5076 155.161 57.3878C154.281 58.2681 154.281 59.7114 155.161 60.5917L163.798 69.2283L164.151 69.5813L163.798 69.9348L153.206 80.5595L152.854 80.9129L152.5 80.5614L148.002 76.0964L148.001 76.0951C147.121 75.2149 145.677 75.2149 144.797 76.0951C143.917 76.9753 143.917 78.4184 144.797 79.2987C144.797 79.2988 144.797 79.2989 144.797 79.2989L149.293 83.7626L149.649 84.1162L149.295 84.471L140.137 93.6291C139.256 94.5094 139.256 95.9527 140.137 96.8329C140.594 97.2903 141.15 97.5013 141.738 97.5013C142.336 97.5013 142.915 97.2845 143.33 96.8438L143.335 96.8383L143.34 96.8329L154.389 85.7845L154.389 85.7845C154.419 85.7541 154.45 85.7296 154.478 85.7106C154.497 85.6831 154.521 85.6523 154.551 85.622C154.551 85.6219 154.552 85.6217 154.552 85.6216M154.878 31.935L154.905 85.9751L154.552 85.6216M154.878 31.935L175.832 52.7908C175.832 52.7912 175.833 52.7916 175.833 52.792M154.878 31.935L175.833 52.792M154.552 85.6216L168.843 71.2978M154.552 85.6216L168.843 71.2978M168.843 71.2978V71.5047C168.843 71.4667 168.848 71.4212 168.863 71.3718C168.878 71.3217 168.9 71.2765 168.928 71.2373C168.93 71.234 168.933 71.2308 168.935 71.2276C168.935 71.2275 168.935 71.2273 168.935 71.2272C168.956 71.1985 168.978 71.1758 168.997 71.1589C169.021 71.1377 169.039 71.1254 169.045 71.1217L169.045 71.1213C169.051 71.1175 169.056 71.1145 169.05 71.1182C169.048 71.1194 169.044 71.1218 169.039 71.1251C169.035 71.1277 169.03 71.131 169.025 71.1345C169.016 71.1404 169.005 71.1475 168.994 71.1559C168.985 71.1626 168.976 71.1702 168.966 71.1786C168.973 71.1689 168.982 71.1588 168.99 71.1512L168.963 71.178M168.843 71.2978L169.055 71.086L169.112 71.029M168.843 71.2978L168.921 71.2201L168.843 71.2976V71.2978ZM168.963 71.178C168.98 71.153 169.025 71.0898 169.102 71.0355C169.105 71.0333 169.108 71.0312 169.112 71.029M168.963 71.178L168.926 71.2145C168.937 71.2037 168.948 71.1939 168.958 71.185C168.959 71.1842 168.959 71.1834 168.96 71.1826C168.961 71.1812 168.962 71.1797 168.963 71.178ZM169.112 71.029L175.834 64.307C178.994 61.1468 178.997 55.9876 175.833 52.792M169.112 71.029L175.833 52.792M154.566 85.6589C154.571 85.6562 154.572 85.6559 154.568 85.6583C154.567 85.6585 154.567 85.6587 154.566 85.6589Z" fill="#5D48E0" stroke="#5D48E0"/>
</svg>
