<svg width="382" height="274" viewBox="0 0 382 274" fill="none" xmlns="http://www.w3.org/2000/svg">
<line y1="0.75" x2="382" y2="0.75" stroke="#3B3E4E" stroke-width="0.5"/>
<path d="M5.616 62V48.08H0.816V45.2H13.68V48.08H8.736V62H5.616ZM18.5978 62.24C17.5578 62.24 16.6138 61.952 15.7658 61.376C14.9178 60.8 14.2378 60.016 13.7258 59.024C13.2138 58.032 12.9578 56.904 12.9578 55.64C12.9578 54.376 13.2138 53.248 13.7258 52.256C14.2378 51.264 14.9338 50.488 15.8138 49.928C16.6938 49.368 17.6858 49.088 18.7898 49.088C19.4298 49.088 20.0138 49.184 20.5418 49.376C21.0698 49.552 21.5338 49.808 21.9338 50.144C22.3338 50.48 22.6618 50.864 22.9178 51.296C23.1898 51.728 23.3738 52.192 23.4698 52.688L22.8218 52.52V49.352H25.7978V62H22.7978V58.976L23.4938 58.856C23.3818 59.288 23.1738 59.712 22.8698 60.128C22.5818 60.528 22.2138 60.888 21.7658 61.208C21.3338 61.512 20.8458 61.76 20.3018 61.952C19.7738 62.144 19.2058 62.24 18.5978 62.24ZM19.4138 59.624C20.1018 59.624 20.7098 59.456 21.2378 59.12C21.7658 58.784 22.1738 58.32 22.4618 57.728C22.7658 57.12 22.9178 56.424 22.9178 55.64C22.9178 54.872 22.7658 54.192 22.4618 53.6C22.1738 53.008 21.7658 52.544 21.2378 52.208C20.7098 51.872 20.1018 51.704 19.4138 51.704C18.7258 51.704 18.1178 51.872 17.5898 52.208C17.0778 52.544 16.6778 53.008 16.3898 53.6C16.1018 54.192 15.9578 54.872 15.9578 55.64C15.9578 56.424 16.1018 57.12 16.3898 57.728C16.6778 58.32 17.0778 58.784 17.5898 59.12C18.1178 59.456 18.7258 59.624 19.4138 59.624ZM34.9082 67.52C33.9642 67.52 33.0202 67.376 32.0762 67.088C31.1482 66.8 30.3962 66.424 29.8202 65.96L30.8762 63.776C31.2122 64.016 31.5882 64.224 32.0042 64.4C32.4202 64.576 32.8602 64.712 33.3242 64.808C33.8042 64.904 34.2762 64.952 34.7402 64.952C35.5882 64.952 36.2922 64.816 36.8522 64.544C37.4282 64.288 37.8602 63.888 38.1482 63.344C38.4362 62.816 38.5802 62.152 38.5802 61.352V59.024L39.0122 59.192C38.9162 59.688 38.6522 60.16 38.2202 60.608C37.7882 61.056 37.2442 61.424 36.5882 61.712C35.9322 61.984 35.2602 62.12 34.5722 62.12C33.3722 62.12 32.3082 61.84 31.3802 61.28C30.4682 60.72 29.7402 59.96 29.1962 59C28.6682 58.024 28.4042 56.904 28.4042 55.64C28.4042 54.376 28.6682 53.256 29.1962 52.28C29.7242 51.288 30.4442 50.512 31.3562 49.952C32.2842 49.376 33.3242 49.088 34.4762 49.088C34.9562 49.088 35.4202 49.144 35.8682 49.256C36.3162 49.368 36.7242 49.528 37.0922 49.736C37.4762 49.944 37.8202 50.176 38.1242 50.432C38.4282 50.688 38.6762 50.96 38.8682 51.248C39.0602 51.536 39.1802 51.816 39.2282 52.088L38.6042 52.28L38.6522 49.352H41.5562V61.136C41.5562 62.16 41.4042 63.064 41.1002 63.848C40.7962 64.632 40.3562 65.296 39.7802 65.84C39.2042 66.4 38.5082 66.816 37.6922 67.088C36.8762 67.376 35.9482 67.52 34.9082 67.52ZM35.0282 59.6C35.7482 59.6 36.3802 59.432 36.9242 59.096C37.4842 58.76 37.9162 58.296 38.2202 57.704C38.5242 57.112 38.6762 56.432 38.6762 55.664C38.6762 54.88 38.5162 54.192 38.1962 53.6C37.8922 52.992 37.4682 52.52 36.9242 52.184C36.3802 51.848 35.7482 51.68 35.0282 51.68C34.3082 51.68 33.6762 51.856 33.1322 52.208C32.5882 52.544 32.1562 53.016 31.8362 53.624C31.5322 54.216 31.3802 54.896 31.3802 55.664C31.3802 56.416 31.5322 57.096 31.8362 57.704C32.1562 58.296 32.5882 58.76 33.1322 59.096C33.6762 59.432 34.3082 59.6 35.0282 59.6ZM48.9598 62.24C47.8398 62.24 46.8318 62.056 45.9358 61.688C45.0558 61.304 44.3358 60.76 43.7758 60.056L45.6958 58.4C46.1758 58.944 46.7118 59.336 47.3038 59.576C47.8958 59.816 48.5198 59.936 49.1758 59.936C49.4478 59.936 49.6878 59.904 49.8958 59.84C50.1198 59.776 50.3118 59.68 50.4718 59.552C50.6318 59.424 50.7518 59.28 50.8318 59.12C50.9278 58.944 50.9758 58.752 50.9758 58.544C50.9758 58.16 50.8318 57.856 50.5438 57.632C50.3838 57.52 50.1278 57.4 49.7758 57.272C49.4398 57.144 48.9998 57.016 48.4558 56.888C47.5918 56.664 46.8718 56.408 46.2958 56.12C45.7198 55.816 45.2718 55.48 44.9518 55.112C44.6798 54.808 44.4718 54.464 44.3278 54.08C44.1998 53.696 44.1358 53.28 44.1358 52.832C44.1358 52.272 44.2558 51.768 44.4958 51.32C44.7518 50.856 45.0958 50.456 45.5278 50.12C45.9598 49.784 46.4638 49.528 47.0398 49.352C47.6158 49.176 48.2158 49.088 48.8398 49.088C49.4798 49.088 50.0958 49.168 50.6878 49.328C51.2958 49.488 51.8558 49.72 52.3678 50.024C52.8958 50.312 53.3438 50.664 53.7118 51.08L52.0798 52.88C51.7758 52.592 51.4398 52.336 51.0718 52.112C50.7198 51.888 50.3598 51.712 49.9918 51.584C49.6238 51.44 49.2798 51.368 48.9598 51.368C48.6558 51.368 48.3838 51.4 48.1438 51.464C47.9038 51.512 47.7038 51.592 47.5438 51.704C47.3838 51.816 47.2558 51.96 47.1598 52.136C47.0798 52.296 47.0398 52.488 47.0398 52.712C47.0558 52.904 47.1038 53.088 47.1838 53.264C47.2798 53.424 47.4078 53.56 47.5678 53.672C47.7438 53.784 48.0078 53.912 48.3598 54.056C48.7118 54.2 49.1678 54.336 49.7278 54.464C50.5118 54.672 51.1678 54.904 51.6958 55.16C52.2238 55.416 52.6398 55.712 52.9438 56.048C53.2478 56.336 53.4638 56.672 53.5918 57.056C53.7198 57.44 53.7838 57.864 53.7838 58.328C53.7838 59.08 53.5678 59.752 53.1358 60.344C52.7198 60.936 52.1438 61.4 51.4078 61.736C50.6878 62.072 49.8718 62.24 48.9598 62.24Z" fill="#050042"/>
<rect x="0.5" y="154.5" width="151" height="47" rx="23.5" fill="white" stroke="#EEEEEE"/>
<path d="M31.2324 186L26.4375 173.363H26.3594C26.3854 173.63 26.4082 173.956 26.4277 174.34C26.4473 174.724 26.4635 175.144 26.4766 175.6C26.4896 176.049 26.4961 176.508 26.4961 176.977V186H24.9531V171.723H27.4141L31.9355 183.598H32.0039L36.5938 171.723H39.0352V186H37.3945V176.859C37.3945 176.436 37.401 176.013 37.4141 175.59C37.4271 175.16 37.4434 174.757 37.4629 174.379C37.4824 173.995 37.502 173.663 37.5215 173.383H37.4434L32.5898 186H31.2324ZM51.9258 180.629C51.9258 181.508 51.8118 182.292 51.584 182.982C51.3561 183.673 51.0273 184.255 50.5977 184.73C50.168 185.206 49.6471 185.57 49.0352 185.824C48.4297 186.072 47.7428 186.195 46.9746 186.195C46.2585 186.195 45.6009 186.072 45.002 185.824C44.4095 185.57 43.8952 185.206 43.459 184.73C43.0293 184.255 42.694 183.673 42.4531 182.982C42.2188 182.292 42.1016 181.508 42.1016 180.629C42.1016 179.457 42.3001 178.461 42.6973 177.641C43.0944 176.814 43.6608 176.186 44.3965 175.756C45.1387 175.32 46.0208 175.102 47.043 175.102C48.0195 175.102 48.8724 175.32 49.6016 175.756C50.3372 176.192 50.9069 176.824 51.3105 177.65C51.7207 178.471 51.9258 179.464 51.9258 180.629ZM43.7812 180.629C43.7812 181.488 43.8952 182.234 44.123 182.865C44.3509 183.497 44.7025 183.985 45.1777 184.33C45.653 184.675 46.265 184.848 47.0137 184.848C47.7559 184.848 48.3646 184.675 48.8398 184.33C49.3216 183.985 49.6764 183.497 49.9043 182.865C50.1322 182.234 50.2461 181.488 50.2461 180.629C50.2461 179.776 50.1322 179.04 49.9043 178.422C49.6764 177.797 49.3249 177.315 48.8496 176.977C48.3743 176.638 47.7591 176.469 47.0039 176.469C45.8906 176.469 45.0736 176.837 44.5527 177.572C44.0384 178.308 43.7812 179.327 43.7812 180.629ZM56.3496 170.805V174.604C56.3496 175.04 56.3366 175.463 56.3105 175.873C56.291 176.283 56.2747 176.602 56.2617 176.83H56.3496C56.6426 176.348 57.0658 175.941 57.6191 175.609C58.1725 175.277 58.8789 175.111 59.7383 175.111C61.0794 175.111 62.1471 175.577 62.9414 176.508C63.7422 177.432 64.1426 178.809 64.1426 180.639C64.1426 181.843 63.9603 182.859 63.5957 183.686C63.2311 184.512 62.7168 185.137 62.0527 185.561C61.3887 185.984 60.6042 186.195 59.6992 186.195C58.8529 186.195 58.1562 186.039 57.6094 185.727C57.069 185.408 56.6523 185.02 56.3594 184.564H56.2324L55.9004 186H54.7285V170.805H56.3496ZM59.4746 176.469C58.6999 176.469 58.0846 176.622 57.6289 176.928C57.1732 177.227 56.8444 177.683 56.6426 178.295C56.4473 178.9 56.3496 179.669 56.3496 180.6V180.688C56.3496 182.035 56.5742 183.067 57.0234 183.783C57.4727 184.493 58.2897 184.848 59.4746 184.848C60.4707 184.848 61.2161 184.483 61.7109 183.754C62.2122 183.025 62.4629 181.983 62.4629 180.629C62.4629 179.249 62.2155 178.21 61.7207 177.514C61.2324 176.817 60.4837 176.469 59.4746 176.469ZM68.5957 175.297V186H66.9746V175.297H68.5957ZM67.8047 171.293C68.0716 171.293 68.2995 171.381 68.4883 171.557C68.6836 171.726 68.7812 171.993 68.7812 172.357C68.7812 172.715 68.6836 172.982 68.4883 173.158C68.2995 173.334 68.0716 173.422 67.8047 173.422C67.5247 173.422 67.2904 173.334 67.1016 173.158C66.9193 172.982 66.8281 172.715 66.8281 172.357C66.8281 171.993 66.9193 171.726 67.1016 171.557C67.2904 171.381 67.5247 171.293 67.8047 171.293ZM73.6641 186H72.0332V170.805H73.6641V186ZM81.2129 175.102C82.1243 175.102 82.9056 175.303 83.5566 175.707C84.2077 176.111 84.7057 176.677 85.0508 177.406C85.3958 178.129 85.5684 178.975 85.5684 179.945V180.951H78.1758C78.1953 182.208 78.5078 183.165 79.1133 183.822C79.7188 184.48 80.5716 184.809 81.6719 184.809C82.349 184.809 82.9479 184.747 83.4688 184.623C83.9896 184.499 84.5299 184.317 85.0898 184.076V185.502C84.5495 185.743 84.0124 185.919 83.4785 186.029C82.9512 186.14 82.3262 186.195 81.6035 186.195C80.5749 186.195 79.6764 185.987 78.9082 185.57C78.1465 185.147 77.554 184.529 77.1309 183.715C76.7077 182.901 76.4961 181.905 76.4961 180.727C76.4961 179.574 76.6882 178.578 77.0723 177.738C77.4629 176.892 78.0098 176.241 78.7129 175.785C79.4225 175.329 80.2559 175.102 81.2129 175.102ZM81.1934 176.43C80.3275 176.43 79.6374 176.713 79.123 177.279C78.6087 177.846 78.3027 178.637 78.2051 179.652H83.8691C83.8626 179.014 83.7617 178.454 83.5664 177.973C83.3776 177.484 83.0879 177.107 82.6973 176.84C82.3066 176.566 81.8053 176.43 81.1934 176.43ZM102.717 186L100.959 181.469H95.2363L93.4883 186H91.8086L97.3945 171.664H98.8887L104.436 186H102.717ZM100.461 179.994L98.791 175.492C98.752 175.375 98.6868 175.183 98.5957 174.916C98.5111 174.649 98.4232 174.372 98.332 174.086C98.2409 173.799 98.166 173.568 98.1074 173.393C98.0423 173.66 97.9707 173.926 97.8926 174.193C97.821 174.454 97.7493 174.698 97.6777 174.926C97.6061 175.147 97.5443 175.336 97.4922 175.492L95.793 179.994H100.461ZM111.203 175.102C112.538 175.102 113.602 175.561 114.396 176.479C115.191 177.396 115.588 178.777 115.588 180.619C115.588 181.837 115.406 182.859 115.041 183.686C114.676 184.512 114.162 185.137 113.498 185.561C112.84 185.984 112.062 186.195 111.164 186.195C110.598 186.195 110.1 186.12 109.67 185.971C109.24 185.821 108.872 185.619 108.566 185.365C108.26 185.111 108.007 184.835 107.805 184.535H107.688C107.707 184.789 107.73 185.095 107.756 185.453C107.788 185.811 107.805 186.124 107.805 186.391V190.785H106.174V175.297H107.512L107.727 176.879H107.805C108.013 176.553 108.267 176.257 108.566 175.99C108.866 175.717 109.23 175.502 109.66 175.346C110.096 175.183 110.611 175.102 111.203 175.102ZM110.92 176.469C110.178 176.469 109.579 176.612 109.123 176.898C108.674 177.185 108.345 177.615 108.137 178.188C107.928 178.754 107.818 179.467 107.805 180.326V180.639C107.805 181.544 107.902 182.309 108.098 182.934C108.299 183.559 108.628 184.034 109.084 184.359C109.546 184.685 110.165 184.848 110.939 184.848C111.604 184.848 112.157 184.669 112.6 184.311C113.042 183.952 113.371 183.454 113.586 182.816C113.807 182.172 113.918 181.433 113.918 180.6C113.918 179.337 113.671 178.334 113.176 177.592C112.688 176.843 111.936 176.469 110.92 176.469ZM123.449 175.102C124.784 175.102 125.848 175.561 126.643 176.479C127.437 177.396 127.834 178.777 127.834 180.619C127.834 181.837 127.652 182.859 127.287 183.686C126.923 184.512 126.408 185.137 125.744 185.561C125.087 185.984 124.309 186.195 123.41 186.195C122.844 186.195 122.346 186.12 121.916 185.971C121.486 185.821 121.118 185.619 120.812 185.365C120.507 185.111 120.253 184.835 120.051 184.535H119.934C119.953 184.789 119.976 185.095 120.002 185.453C120.035 185.811 120.051 186.124 120.051 186.391V190.785H118.42V175.297H119.758L119.973 176.879H120.051C120.259 176.553 120.513 176.257 120.812 175.99C121.112 175.717 121.477 175.502 121.906 175.346C122.342 175.183 122.857 175.102 123.449 175.102ZM123.166 176.469C122.424 176.469 121.825 176.612 121.369 176.898C120.92 177.185 120.591 177.615 120.383 178.188C120.174 178.754 120.064 179.467 120.051 180.326V180.639C120.051 181.544 120.148 182.309 120.344 182.934C120.546 183.559 120.874 184.034 121.33 184.359C121.792 184.685 122.411 184.848 123.186 184.848C123.85 184.848 124.403 184.669 124.846 184.311C125.288 183.952 125.617 183.454 125.832 182.816C126.053 182.172 126.164 181.433 126.164 180.6C126.164 179.337 125.917 178.334 125.422 177.592C124.934 176.843 124.182 176.469 123.166 176.469Z" fill="#B5B5B5"/>
<rect x="236.5" y="154.5" width="145" height="47" rx="23.5" fill="white" stroke="#EEEEEE"/>
<path d="M261.811 171.723C262.982 171.723 263.949 171.869 264.711 172.162C265.479 172.449 266.052 172.888 266.43 173.48C266.807 174.073 266.996 174.828 266.996 175.746C266.996 176.501 266.859 177.133 266.586 177.641C266.312 178.142 265.954 178.549 265.512 178.861C265.069 179.174 264.597 179.415 264.096 179.584L268.012 186H266.078L262.582 180.043H259.613V186H257.953V171.723H261.811ZM261.713 173.158H259.613V178.637H261.879C263.044 178.637 263.9 178.399 264.447 177.924C265.001 177.449 265.277 176.749 265.277 175.824C265.277 174.854 264.984 174.167 264.398 173.764C263.819 173.36 262.924 173.158 261.713 173.158ZM274.174 175.102C275.085 175.102 275.867 175.303 276.518 175.707C277.169 176.111 277.667 176.677 278.012 177.406C278.357 178.129 278.529 178.975 278.529 179.945V180.951H271.137C271.156 182.208 271.469 183.165 272.074 183.822C272.68 184.48 273.533 184.809 274.633 184.809C275.31 184.809 275.909 184.747 276.43 184.623C276.951 184.499 277.491 184.317 278.051 184.076V185.502C277.51 185.743 276.973 185.919 276.439 186.029C275.912 186.14 275.287 186.195 274.564 186.195C273.536 186.195 272.637 185.987 271.869 185.57C271.107 185.147 270.515 184.529 270.092 183.715C269.669 182.901 269.457 181.905 269.457 180.727C269.457 179.574 269.649 178.578 270.033 177.738C270.424 176.892 270.971 176.241 271.674 175.785C272.383 175.329 273.217 175.102 274.174 175.102ZM274.154 176.43C273.288 176.43 272.598 176.713 272.084 177.279C271.57 177.846 271.264 178.637 271.166 179.652H276.83C276.824 179.014 276.723 178.454 276.527 177.973C276.339 177.484 276.049 177.107 275.658 176.84C275.268 176.566 274.766 176.43 274.154 176.43ZM288.207 183.07C288.207 183.754 288.035 184.33 287.689 184.799C287.351 185.261 286.863 185.609 286.225 185.844C285.593 186.078 284.838 186.195 283.959 186.195C283.21 186.195 282.562 186.137 282.016 186.02C281.469 185.902 280.99 185.736 280.58 185.521V184.027C281.016 184.242 281.537 184.438 282.143 184.613C282.748 184.789 283.367 184.877 283.998 184.877C284.923 184.877 285.593 184.727 286.01 184.428C286.426 184.128 286.635 183.721 286.635 183.207C286.635 182.914 286.55 182.657 286.381 182.436C286.218 182.208 285.941 181.99 285.551 181.781C285.16 181.566 284.62 181.332 283.93 181.078C283.246 180.818 282.654 180.561 282.152 180.307C281.658 180.046 281.273 179.73 281 179.359C280.733 178.988 280.6 178.507 280.6 177.914C280.6 177.009 280.964 176.316 281.693 175.834C282.429 175.346 283.393 175.102 284.584 175.102C285.229 175.102 285.831 175.167 286.391 175.297C286.957 175.421 287.484 175.59 287.973 175.805L287.426 177.104C286.983 176.915 286.511 176.755 286.01 176.625C285.508 176.495 284.997 176.43 284.477 176.43C283.728 176.43 283.152 176.553 282.748 176.801C282.351 177.048 282.152 177.387 282.152 177.816C282.152 178.148 282.243 178.422 282.426 178.637C282.615 178.852 282.914 179.053 283.324 179.242C283.734 179.431 284.275 179.652 284.945 179.906C285.616 180.154 286.195 180.411 286.684 180.678C287.172 180.938 287.546 181.257 287.807 181.635C288.074 182.006 288.207 182.484 288.207 183.07ZM295.844 175.102C297.178 175.102 298.243 175.561 299.037 176.479C299.831 177.396 300.229 178.777 300.229 180.619C300.229 181.837 300.046 182.859 299.682 183.686C299.317 184.512 298.803 185.137 298.139 185.561C297.481 185.984 296.703 186.195 295.805 186.195C295.238 186.195 294.74 186.12 294.311 185.971C293.881 185.821 293.513 185.619 293.207 185.365C292.901 185.111 292.647 184.835 292.445 184.535H292.328C292.348 184.789 292.37 185.095 292.396 185.453C292.429 185.811 292.445 186.124 292.445 186.391V190.785H290.814V175.297H292.152L292.367 176.879H292.445C292.654 176.553 292.908 176.257 293.207 175.99C293.507 175.717 293.871 175.502 294.301 175.346C294.737 175.183 295.251 175.102 295.844 175.102ZM295.561 176.469C294.818 176.469 294.219 176.612 293.764 176.898C293.314 177.185 292.986 177.615 292.777 178.188C292.569 178.754 292.458 179.467 292.445 180.326V180.639C292.445 181.544 292.543 182.309 292.738 182.934C292.94 183.559 293.269 184.034 293.725 184.359C294.187 184.685 294.805 184.848 295.58 184.848C296.244 184.848 296.798 184.669 297.24 184.311C297.683 183.952 298.012 183.454 298.227 182.816C298.448 182.172 298.559 181.433 298.559 180.6C298.559 179.337 298.311 178.334 297.816 177.592C297.328 176.843 296.576 176.469 295.561 176.469ZM312.289 180.629C312.289 181.508 312.175 182.292 311.947 182.982C311.719 183.673 311.391 184.255 310.961 184.73C310.531 185.206 310.01 185.57 309.398 185.824C308.793 186.072 308.106 186.195 307.338 186.195C306.622 186.195 305.964 186.072 305.365 185.824C304.773 185.57 304.258 185.206 303.822 184.73C303.393 184.255 303.057 183.673 302.816 182.982C302.582 182.292 302.465 181.508 302.465 180.629C302.465 179.457 302.663 178.461 303.061 177.641C303.458 176.814 304.024 176.186 304.76 175.756C305.502 175.32 306.384 175.102 307.406 175.102C308.383 175.102 309.236 175.32 309.965 175.756C310.701 176.192 311.27 176.824 311.674 177.65C312.084 178.471 312.289 179.464 312.289 180.629ZM304.145 180.629C304.145 181.488 304.258 182.234 304.486 182.865C304.714 183.497 305.066 183.985 305.541 184.33C306.016 184.675 306.628 184.848 307.377 184.848C308.119 184.848 308.728 184.675 309.203 184.33C309.685 183.985 310.04 183.497 310.268 182.865C310.495 182.234 310.609 181.488 310.609 180.629C310.609 179.776 310.495 179.04 310.268 178.422C310.04 177.797 309.688 177.315 309.213 176.977C308.738 176.638 308.122 176.469 307.367 176.469C306.254 176.469 305.437 176.837 304.916 177.572C304.402 178.308 304.145 179.327 304.145 180.629ZM320.16 175.102C321.43 175.102 322.39 175.414 323.041 176.039C323.692 176.658 324.018 177.654 324.018 179.027V186H322.416V179.135C322.416 178.243 322.211 177.576 321.801 177.133C321.397 176.69 320.775 176.469 319.936 176.469C318.751 176.469 317.917 176.804 317.436 177.475C316.954 178.145 316.713 179.118 316.713 180.395V186H315.092V175.297H316.4L316.645 176.84H316.732C316.96 176.462 317.25 176.146 317.602 175.893C317.953 175.632 318.347 175.437 318.783 175.307C319.219 175.17 319.678 175.102 320.16 175.102ZM334.281 183.07C334.281 183.754 334.109 184.33 333.764 184.799C333.425 185.261 332.937 185.609 332.299 185.844C331.667 186.078 330.912 186.195 330.033 186.195C329.285 186.195 328.637 186.137 328.09 186.02C327.543 185.902 327.064 185.736 326.654 185.521V184.027C327.09 184.242 327.611 184.438 328.217 184.613C328.822 184.789 329.441 184.877 330.072 184.877C330.997 184.877 331.667 184.727 332.084 184.428C332.501 184.128 332.709 183.721 332.709 183.207C332.709 182.914 332.624 182.657 332.455 182.436C332.292 182.208 332.016 181.99 331.625 181.781C331.234 181.566 330.694 181.332 330.004 181.078C329.32 180.818 328.728 180.561 328.227 180.307C327.732 180.046 327.348 179.73 327.074 179.359C326.807 178.988 326.674 178.507 326.674 177.914C326.674 177.009 327.038 176.316 327.768 175.834C328.503 175.346 329.467 175.102 330.658 175.102C331.303 175.102 331.905 175.167 332.465 175.297C333.031 175.421 333.559 175.59 334.047 175.805L333.5 177.104C333.057 176.915 332.585 176.755 332.084 176.625C331.583 176.495 331.072 176.43 330.551 176.43C329.802 176.43 329.226 176.553 328.822 176.801C328.425 177.048 328.227 177.387 328.227 177.816C328.227 178.148 328.318 178.422 328.5 178.637C328.689 178.852 328.988 179.053 329.398 179.242C329.809 179.431 330.349 179.652 331.02 179.906C331.69 180.154 332.27 180.411 332.758 180.678C333.246 180.938 333.62 181.257 333.881 181.635C334.148 182.006 334.281 182.484 334.281 183.07ZM338.51 175.297V186H336.889V175.297H338.51ZM337.719 171.293C337.986 171.293 338.214 171.381 338.402 171.557C338.598 171.726 338.695 171.993 338.695 172.357C338.695 172.715 338.598 172.982 338.402 173.158C338.214 173.334 337.986 173.422 337.719 173.422C337.439 173.422 337.204 173.334 337.016 173.158C336.833 172.982 336.742 172.715 336.742 172.357C336.742 171.993 336.833 171.726 337.016 171.557C337.204 171.381 337.439 171.293 337.719 171.293ZM344.301 186L340.238 175.297H341.977L344.33 181.771C344.493 182.214 344.659 182.702 344.828 183.236C344.997 183.77 345.115 184.2 345.18 184.525H345.248C345.326 184.2 345.456 183.77 345.639 183.236C345.821 182.696 345.987 182.208 346.137 181.771L348.49 175.297H350.229L346.156 186H344.301ZM356.068 175.102C356.98 175.102 357.761 175.303 358.412 175.707C359.063 176.111 359.561 176.677 359.906 177.406C360.251 178.129 360.424 178.975 360.424 179.945V180.951H353.031C353.051 182.208 353.363 183.165 353.969 183.822C354.574 184.48 355.427 184.809 356.527 184.809C357.204 184.809 357.803 184.747 358.324 184.623C358.845 184.499 359.385 184.317 359.945 184.076V185.502C359.405 185.743 358.868 185.919 358.334 186.029C357.807 186.14 357.182 186.195 356.459 186.195C355.43 186.195 354.532 185.987 353.764 185.57C353.002 185.147 352.41 184.529 351.986 183.715C351.563 182.901 351.352 181.905 351.352 180.727C351.352 179.574 351.544 178.578 351.928 177.738C352.318 176.892 352.865 176.241 353.568 175.785C354.278 175.329 355.111 175.102 356.068 175.102ZM356.049 176.43C355.183 176.43 354.493 176.713 353.979 177.279C353.464 177.846 353.158 178.637 353.061 179.652H358.725C358.718 179.014 358.617 178.454 358.422 177.973C358.233 177.484 357.943 177.107 357.553 176.84C357.162 176.566 356.661 176.43 356.049 176.43Z" fill="#B5B5B5"/>
<rect x="160.5" y="154.5" width="67" height="47" rx="23.5" fill="white" stroke="#EEEEEE"/>
<path d="M195.908 186L194.15 181.469H188.428L186.68 186H185L190.586 171.664H192.08L197.627 186H195.908ZM193.652 179.994L191.982 175.492C191.943 175.375 191.878 175.183 191.787 174.916C191.702 174.649 191.615 174.372 191.523 174.086C191.432 173.799 191.357 173.568 191.299 173.393C191.234 173.66 191.162 173.926 191.084 174.193C191.012 174.454 190.941 174.698 190.869 174.926C190.798 175.147 190.736 175.336 190.684 175.492L188.984 179.994H193.652ZM199.609 186V171.723H201.27V186H199.609Z" fill="#B5B5B5"/>
<rect x="0.5" y="82.5" width="151" height="47" rx="23.5" fill="white" stroke="#EEEEEE"/>
<path d="M43.9082 114L42.1504 109.469H36.4277L34.6797 114H33L38.5859 99.6641H40.0801L45.627 114H43.9082ZM41.6523 107.994L39.9824 103.492C39.9434 103.375 39.8783 103.183 39.7871 102.916C39.7025 102.649 39.6146 102.372 39.5234 102.086C39.4323 101.799 39.3574 101.568 39.2988 101.393C39.2337 101.66 39.1621 101.926 39.084 102.193C39.0124 102.454 38.9408 102.698 38.8691 102.926C38.7975 103.147 38.7357 103.336 38.6836 103.492L36.9844 107.994H41.6523ZM47.6094 114V99.7227H49.2695V114H47.6094ZM69.7285 106.725C69.7285 108.333 69.4355 109.677 68.8496 110.758C68.2637 111.832 67.4141 112.643 66.3008 113.189C65.194 113.73 63.8496 114 62.2676 114H58.3906V99.7227H62.6973C64.1491 99.7227 65.3991 99.9896 66.4473 100.523C67.4954 101.051 68.3027 101.835 68.8691 102.877C69.4421 103.912 69.7285 105.195 69.7285 106.725ZM67.9805 106.783C67.9805 105.501 67.7656 104.443 67.3359 103.609C66.9128 102.776 66.2878 102.158 65.4609 101.754C64.6406 101.344 63.6348 101.139 62.4434 101.139H60.0508V112.574H62.0723C64.0384 112.574 65.513 112.089 66.4961 111.119C67.4857 110.149 67.9805 108.704 67.9805 106.783ZM76.7793 103.102C77.6908 103.102 78.472 103.303 79.123 103.707C79.7741 104.111 80.2721 104.677 80.6172 105.406C80.9622 106.129 81.1348 106.975 81.1348 107.945V108.951H73.7422C73.7617 110.208 74.0742 111.165 74.6797 111.822C75.2852 112.48 76.138 112.809 77.2383 112.809C77.9154 112.809 78.5143 112.747 79.0352 112.623C79.556 112.499 80.0964 112.317 80.6562 112.076V113.502C80.1159 113.743 79.5788 113.919 79.0449 114.029C78.5176 114.14 77.8926 114.195 77.1699 114.195C76.1413 114.195 75.2428 113.987 74.4746 113.57C73.7129 113.147 73.1204 112.529 72.6973 111.715C72.2741 110.901 72.0625 109.905 72.0625 108.727C72.0625 107.574 72.2546 106.578 72.6387 105.738C73.0293 104.892 73.5762 104.241 74.2793 103.785C74.9889 103.329 75.8223 103.102 76.7793 103.102ZM76.7598 104.43C75.8939 104.43 75.2038 104.713 74.6895 105.279C74.1751 105.846 73.8691 106.637 73.7715 107.652H79.4355C79.429 107.014 79.3281 106.454 79.1328 105.973C78.944 105.484 78.6543 105.107 78.2637 104.84C77.873 104.566 77.3717 104.43 76.7598 104.43ZM90.8125 111.07C90.8125 111.754 90.64 112.33 90.2949 112.799C89.9564 113.261 89.4681 113.609 88.8301 113.844C88.1986 114.078 87.4434 114.195 86.5645 114.195C85.8158 114.195 85.168 114.137 84.6211 114.02C84.0742 113.902 83.5957 113.736 83.1855 113.521V112.027C83.6217 112.242 84.1426 112.438 84.748 112.613C85.3535 112.789 85.972 112.877 86.6035 112.877C87.528 112.877 88.1986 112.727 88.6152 112.428C89.0319 112.128 89.2402 111.721 89.2402 111.207C89.2402 110.914 89.1556 110.657 88.9863 110.436C88.8236 110.208 88.5469 109.99 88.1562 109.781C87.7656 109.566 87.2253 109.332 86.5352 109.078C85.8516 108.818 85.2591 108.561 84.7578 108.307C84.263 108.046 83.8789 107.73 83.6055 107.359C83.3385 106.988 83.2051 106.507 83.2051 105.914C83.2051 105.009 83.5697 104.316 84.2988 103.834C85.0345 103.346 85.998 103.102 87.1895 103.102C87.834 103.102 88.4362 103.167 88.9961 103.297C89.5625 103.421 90.0898 103.59 90.5781 103.805L90.0312 105.104C89.5885 104.915 89.1165 104.755 88.6152 104.625C88.1139 104.495 87.6029 104.43 87.082 104.43C86.3333 104.43 85.7572 104.553 85.3535 104.801C84.9564 105.048 84.7578 105.387 84.7578 105.816C84.7578 106.148 84.849 106.422 85.0312 106.637C85.2201 106.852 85.5195 107.053 85.9297 107.242C86.3398 107.431 86.8802 107.652 87.5508 107.906C88.2214 108.154 88.8008 108.411 89.2891 108.678C89.7773 108.938 90.1517 109.257 90.4121 109.635C90.679 110.006 90.8125 110.484 90.8125 111.07ZM95.041 103.297V114H93.4199V103.297H95.041ZM94.25 99.293C94.5169 99.293 94.7448 99.3809 94.9336 99.5566C95.1289 99.7259 95.2266 99.9928 95.2266 100.357C95.2266 100.715 95.1289 100.982 94.9336 101.158C94.7448 101.334 94.5169 101.422 94.25 101.422C93.9701 101.422 93.7357 101.334 93.5469 101.158C93.3646 100.982 93.2734 100.715 93.2734 100.357C93.2734 99.9928 93.3646 99.7259 93.5469 99.5566C93.7357 99.3809 93.9701 99.293 94.25 99.293ZM101.467 118.805C100.061 118.805 98.9766 118.541 98.2148 118.014C97.4531 117.493 97.0723 116.76 97.0723 115.816C97.0723 115.146 97.2839 114.573 97.707 114.098C98.1367 113.622 98.7292 113.307 99.4844 113.15C99.2044 113.02 98.9635 112.825 98.7617 112.564C98.5664 112.304 98.4688 112.005 98.4688 111.666C98.4688 111.275 98.5762 110.934 98.791 110.641C99.0124 110.341 99.3477 110.055 99.7969 109.781C99.237 109.553 98.7812 109.169 98.4297 108.629C98.0846 108.082 97.9121 107.447 97.9121 106.725C97.9121 105.956 98.0716 105.302 98.3906 104.762C98.7096 104.215 99.1719 103.798 99.7773 103.512C100.383 103.225 101.115 103.082 101.975 103.082C102.163 103.082 102.352 103.092 102.541 103.111C102.736 103.124 102.922 103.147 103.098 103.18C103.273 103.206 103.426 103.238 103.557 103.277H107.229V104.322L105.256 104.566C105.451 104.82 105.614 105.126 105.744 105.484C105.874 105.842 105.939 106.24 105.939 106.676C105.939 107.743 105.578 108.593 104.855 109.225C104.133 109.85 103.14 110.162 101.877 110.162C101.577 110.162 101.271 110.136 100.959 110.084C100.64 110.26 100.396 110.455 100.227 110.67C100.064 110.885 99.9824 111.132 99.9824 111.412C99.9824 111.62 100.044 111.786 100.168 111.91C100.298 112.034 100.484 112.125 100.725 112.184C100.965 112.236 101.255 112.262 101.594 112.262H103.479C104.644 112.262 105.536 112.506 106.154 112.994C106.779 113.482 107.092 114.195 107.092 115.133C107.092 116.318 106.61 117.226 105.646 117.857C104.683 118.489 103.29 118.805 101.467 118.805ZM101.516 117.535C102.401 117.535 103.133 117.444 103.713 117.262C104.299 117.086 104.735 116.829 105.021 116.49C105.314 116.158 105.461 115.761 105.461 115.299C105.461 114.869 105.363 114.544 105.168 114.322C104.973 114.107 104.686 113.964 104.309 113.893C103.931 113.814 103.469 113.775 102.922 113.775H101.066C100.585 113.775 100.165 113.85 99.8066 114C99.4486 114.15 99.1719 114.371 98.9766 114.664C98.7878 114.957 98.6934 115.322 98.6934 115.758C98.6934 116.337 98.9375 116.777 99.4258 117.076C99.9141 117.382 100.611 117.535 101.516 117.535ZM101.936 108.98C102.71 108.98 103.293 108.785 103.684 108.395C104.074 108.004 104.27 107.434 104.27 106.686C104.27 105.885 104.071 105.286 103.674 104.889C103.277 104.485 102.691 104.283 101.916 104.283C101.174 104.283 100.601 104.492 100.197 104.908C99.8001 105.318 99.6016 105.921 99.6016 106.715C99.6016 107.444 99.8034 108.004 100.207 108.395C100.611 108.785 101.187 108.98 101.936 108.98ZM114.406 103.102C115.676 103.102 116.636 103.414 117.287 104.039C117.938 104.658 118.264 105.654 118.264 107.027V114H116.662V107.135C116.662 106.243 116.457 105.576 116.047 105.133C115.643 104.69 115.021 104.469 114.182 104.469C112.997 104.469 112.163 104.804 111.682 105.475C111.2 106.145 110.959 107.118 110.959 108.395V114H109.338V103.297H110.646L110.891 104.84H110.979C111.206 104.462 111.496 104.146 111.848 103.893C112.199 103.632 112.593 103.437 113.029 103.307C113.465 103.17 113.924 103.102 114.406 103.102Z" fill="#B5B5B5"/>
<rect x="160.5" y="82.5" width="221" height="47" rx="23.5" fill="white" stroke="#EEEEEE"/>
<path d="M203.174 99.7227L199.355 114H197.686L194.854 104.391C194.769 104.117 194.688 103.844 194.609 103.57C194.538 103.29 194.469 103.027 194.404 102.779C194.339 102.525 194.284 102.304 194.238 102.115C194.199 101.92 194.17 101.773 194.15 101.676C194.137 101.773 194.111 101.917 194.072 102.105C194.04 102.294 193.994 102.512 193.936 102.76C193.883 103.007 193.818 103.271 193.74 103.551C193.669 103.831 193.59 104.114 193.506 104.4L190.752 114H189.082L185.293 99.7227H187.021L189.316 108.678C189.395 108.977 189.466 109.273 189.531 109.566C189.603 109.853 189.665 110.133 189.717 110.406C189.775 110.68 189.827 110.947 189.873 111.207C189.919 111.467 189.961 111.721 190 111.969C190.033 111.715 190.075 111.451 190.127 111.178C190.179 110.898 190.234 110.615 190.293 110.328C190.358 110.042 190.426 109.752 190.498 109.459C190.576 109.166 190.658 108.873 190.742 108.58L193.311 99.7227H195.02L197.695 108.648C197.786 108.954 197.871 109.257 197.949 109.557C198.027 109.856 198.096 110.149 198.154 110.436C198.219 110.715 198.275 110.986 198.32 111.246C198.372 111.5 198.418 111.741 198.457 111.969C198.503 111.65 198.558 111.314 198.623 110.963C198.688 110.611 198.763 110.243 198.848 109.859C198.939 109.475 199.036 109.078 199.141 108.668L201.436 99.7227H203.174ZM209.307 103.102C210.218 103.102 210.999 103.303 211.65 103.707C212.301 104.111 212.799 104.677 213.145 105.406C213.49 106.129 213.662 106.975 213.662 107.945V108.951H206.27C206.289 110.208 206.602 111.165 207.207 111.822C207.812 112.48 208.665 112.809 209.766 112.809C210.443 112.809 211.042 112.747 211.562 112.623C212.083 112.499 212.624 112.317 213.184 112.076V113.502C212.643 113.743 212.106 113.919 211.572 114.029C211.045 114.14 210.42 114.195 209.697 114.195C208.669 114.195 207.77 113.987 207.002 113.57C206.24 113.147 205.648 112.529 205.225 111.715C204.801 110.901 204.59 109.905 204.59 108.727C204.59 107.574 204.782 106.578 205.166 105.738C205.557 104.892 206.104 104.241 206.807 103.785C207.516 103.329 208.35 103.102 209.307 103.102ZM209.287 104.43C208.421 104.43 207.731 104.713 207.217 105.279C206.702 105.846 206.396 106.637 206.299 107.652H211.963C211.956 107.014 211.855 106.454 211.66 105.973C211.471 105.484 211.182 105.107 210.791 104.84C210.4 104.566 209.899 104.43 209.287 104.43ZM218.037 98.8047V102.604C218.037 103.04 218.024 103.463 217.998 103.873C217.979 104.283 217.962 104.602 217.949 104.83H218.037C218.33 104.348 218.753 103.941 219.307 103.609C219.86 103.277 220.566 103.111 221.426 103.111C222.767 103.111 223.835 103.577 224.629 104.508C225.43 105.432 225.83 106.809 225.83 108.639C225.83 109.843 225.648 110.859 225.283 111.686C224.919 112.512 224.404 113.137 223.74 113.561C223.076 113.984 222.292 114.195 221.387 114.195C220.54 114.195 219.844 114.039 219.297 113.727C218.757 113.408 218.34 113.02 218.047 112.564H217.92L217.588 114H216.416V98.8047H218.037ZM221.162 104.469C220.387 104.469 219.772 104.622 219.316 104.928C218.861 105.227 218.532 105.683 218.33 106.295C218.135 106.9 218.037 107.669 218.037 108.6V108.688C218.037 110.035 218.262 111.067 218.711 111.783C219.16 112.493 219.977 112.848 221.162 112.848C222.158 112.848 222.904 112.483 223.398 111.754C223.9 111.025 224.15 109.983 224.15 108.629C224.15 107.249 223.903 106.21 223.408 105.514C222.92 104.817 222.171 104.469 221.162 104.469ZM245.439 106.725C245.439 108.333 245.146 109.677 244.561 110.758C243.975 111.832 243.125 112.643 242.012 113.189C240.905 113.73 239.561 114 237.979 114H234.102V99.7227H238.408C239.86 99.7227 241.11 99.9896 242.158 100.523C243.206 101.051 244.014 101.835 244.58 102.877C245.153 103.912 245.439 105.195 245.439 106.725ZM243.691 106.783C243.691 105.501 243.477 104.443 243.047 103.609C242.624 102.776 241.999 102.158 241.172 101.754C240.352 101.344 239.346 101.139 238.154 101.139H235.762V112.574H237.783C239.749 112.574 241.224 112.089 242.207 111.119C243.197 110.149 243.691 108.704 243.691 106.783ZM252.49 103.102C253.402 103.102 254.183 103.303 254.834 103.707C255.485 104.111 255.983 104.677 256.328 105.406C256.673 106.129 256.846 106.975 256.846 107.945V108.951H249.453C249.473 110.208 249.785 111.165 250.391 111.822C250.996 112.48 251.849 112.809 252.949 112.809C253.626 112.809 254.225 112.747 254.746 112.623C255.267 112.499 255.807 112.317 256.367 112.076V113.502C255.827 113.743 255.29 113.919 254.756 114.029C254.229 114.14 253.604 114.195 252.881 114.195C251.852 114.195 250.954 113.987 250.186 113.57C249.424 113.147 248.831 112.529 248.408 111.715C247.985 110.901 247.773 109.905 247.773 108.727C247.773 107.574 247.965 106.578 248.35 105.738C248.74 104.892 249.287 104.241 249.99 103.785C250.7 103.329 251.533 103.102 252.49 103.102ZM252.471 104.43C251.605 104.43 250.915 104.713 250.4 105.279C249.886 105.846 249.58 106.637 249.482 107.652H255.146C255.14 107.014 255.039 106.454 254.844 105.973C254.655 105.484 254.365 105.107 253.975 104.84C253.584 104.566 253.083 104.43 252.471 104.43ZM261.953 114L257.891 103.297H259.629L261.982 109.771C262.145 110.214 262.311 110.702 262.48 111.236C262.65 111.77 262.767 112.2 262.832 112.525H262.9C262.979 112.2 263.109 111.77 263.291 111.236C263.473 110.696 263.639 110.208 263.789 109.771L266.143 103.297H267.881L263.809 114H261.953ZM273.721 103.102C274.632 103.102 275.413 103.303 276.064 103.707C276.715 104.111 277.214 104.677 277.559 105.406C277.904 106.129 278.076 106.975 278.076 107.945V108.951H270.684C270.703 110.208 271.016 111.165 271.621 111.822C272.227 112.48 273.079 112.809 274.18 112.809C274.857 112.809 275.456 112.747 275.977 112.623C276.497 112.499 277.038 112.317 277.598 112.076V113.502C277.057 113.743 276.52 113.919 275.986 114.029C275.459 114.14 274.834 114.195 274.111 114.195C273.083 114.195 272.184 113.987 271.416 113.57C270.654 113.147 270.062 112.529 269.639 111.715C269.215 110.901 269.004 109.905 269.004 108.727C269.004 107.574 269.196 106.578 269.58 105.738C269.971 104.892 270.518 104.241 271.221 103.785C271.93 103.329 272.764 103.102 273.721 103.102ZM273.701 104.43C272.835 104.43 272.145 104.713 271.631 105.279C271.117 105.846 270.811 106.637 270.713 107.652H276.377C276.37 107.014 276.27 106.454 276.074 105.973C275.885 105.484 275.596 105.107 275.205 104.84C274.814 104.566 274.313 104.43 273.701 104.43ZM282.461 114H280.83V98.8047H282.461V114ZM295.117 108.629C295.117 109.508 295.003 110.292 294.775 110.982C294.548 111.673 294.219 112.255 293.789 112.73C293.359 113.206 292.839 113.57 292.227 113.824C291.621 114.072 290.934 114.195 290.166 114.195C289.45 114.195 288.792 114.072 288.193 113.824C287.601 113.57 287.087 113.206 286.65 112.73C286.221 112.255 285.885 111.673 285.645 110.982C285.41 110.292 285.293 109.508 285.293 108.629C285.293 107.457 285.492 106.461 285.889 105.641C286.286 104.814 286.852 104.186 287.588 103.756C288.33 103.32 289.212 103.102 290.234 103.102C291.211 103.102 292.064 103.32 292.793 103.756C293.529 104.192 294.098 104.824 294.502 105.65C294.912 106.471 295.117 107.464 295.117 108.629ZM286.973 108.629C286.973 109.488 287.087 110.234 287.314 110.865C287.542 111.497 287.894 111.985 288.369 112.33C288.844 112.675 289.456 112.848 290.205 112.848C290.947 112.848 291.556 112.675 292.031 112.33C292.513 111.985 292.868 111.497 293.096 110.865C293.324 110.234 293.438 109.488 293.438 108.629C293.438 107.776 293.324 107.04 293.096 106.422C292.868 105.797 292.516 105.315 292.041 104.977C291.566 104.638 290.951 104.469 290.195 104.469C289.082 104.469 288.265 104.837 287.744 105.572C287.23 106.308 286.973 107.327 286.973 108.629ZM302.949 103.102C304.284 103.102 305.348 103.561 306.143 104.479C306.937 105.396 307.334 106.777 307.334 108.619C307.334 109.837 307.152 110.859 306.787 111.686C306.423 112.512 305.908 113.137 305.244 113.561C304.587 113.984 303.809 114.195 302.91 114.195C302.344 114.195 301.846 114.12 301.416 113.971C300.986 113.821 300.618 113.619 300.312 113.365C300.007 113.111 299.753 112.835 299.551 112.535H299.434C299.453 112.789 299.476 113.095 299.502 113.453C299.535 113.811 299.551 114.124 299.551 114.391V118.785H297.92V103.297H299.258L299.473 104.879H299.551C299.759 104.553 300.013 104.257 300.312 103.99C300.612 103.717 300.977 103.502 301.406 103.346C301.842 103.183 302.357 103.102 302.949 103.102ZM302.666 104.469C301.924 104.469 301.325 104.612 300.869 104.898C300.42 105.185 300.091 105.615 299.883 106.188C299.674 106.754 299.564 107.467 299.551 108.326V108.639C299.551 109.544 299.648 110.309 299.844 110.934C300.046 111.559 300.374 112.034 300.83 112.359C301.292 112.685 301.911 112.848 302.686 112.848C303.35 112.848 303.903 112.669 304.346 112.311C304.788 111.952 305.117 111.454 305.332 110.816C305.553 110.172 305.664 109.433 305.664 108.6C305.664 107.337 305.417 106.334 304.922 105.592C304.434 104.843 303.682 104.469 302.666 104.469ZM321.787 103.102C322.965 103.102 323.854 103.411 324.453 104.029C325.052 104.641 325.352 105.628 325.352 106.988V114H323.75V107.066C323.75 106.201 323.561 105.553 323.184 105.123C322.812 104.687 322.259 104.469 321.523 104.469C320.488 104.469 319.736 104.768 319.268 105.367C318.799 105.966 318.564 106.848 318.564 108.014V114H316.953V107.066C316.953 106.487 316.868 106.005 316.699 105.621C316.536 105.237 316.289 104.951 315.957 104.762C315.632 104.566 315.218 104.469 314.717 104.469C314.007 104.469 313.438 104.615 313.008 104.908C312.578 105.201 312.266 105.637 312.07 106.217C311.882 106.79 311.787 107.496 311.787 108.336V114H310.166V103.297H311.475L311.719 104.811H311.807C312.021 104.439 312.292 104.127 312.617 103.873C312.943 103.619 313.307 103.427 313.711 103.297C314.115 103.167 314.544 103.102 315 103.102C315.814 103.102 316.494 103.255 317.041 103.561C317.594 103.86 317.995 104.319 318.242 104.938H318.33C318.682 104.319 319.163 103.86 319.775 103.561C320.387 103.255 321.058 103.102 321.787 103.102ZM332.803 103.102C333.714 103.102 334.495 103.303 335.146 103.707C335.798 104.111 336.296 104.677 336.641 105.406C336.986 106.129 337.158 106.975 337.158 107.945V108.951H329.766C329.785 110.208 330.098 111.165 330.703 111.822C331.309 112.48 332.161 112.809 333.262 112.809C333.939 112.809 334.538 112.747 335.059 112.623C335.579 112.499 336.12 112.317 336.68 112.076V113.502C336.139 113.743 335.602 113.919 335.068 114.029C334.541 114.14 333.916 114.195 333.193 114.195C332.165 114.195 331.266 113.987 330.498 113.57C329.736 113.147 329.144 112.529 328.721 111.715C328.298 110.901 328.086 109.905 328.086 108.727C328.086 107.574 328.278 106.578 328.662 105.738C329.053 104.892 329.6 104.241 330.303 103.785C331.012 103.329 331.846 103.102 332.803 103.102ZM332.783 104.43C331.917 104.43 331.227 104.713 330.713 105.279C330.199 105.846 329.893 106.637 329.795 107.652H335.459C335.452 107.014 335.352 106.454 335.156 105.973C334.967 105.484 334.678 105.107 334.287 104.84C333.896 104.566 333.395 104.43 332.783 104.43ZM344.98 103.102C346.25 103.102 347.21 103.414 347.861 104.039C348.512 104.658 348.838 105.654 348.838 107.027V114H347.236V107.135C347.236 106.243 347.031 105.576 346.621 105.133C346.217 104.69 345.596 104.469 344.756 104.469C343.571 104.469 342.738 104.804 342.256 105.475C341.774 106.145 341.533 107.118 341.533 108.395V114H339.912V103.297H341.221L341.465 104.84H341.553C341.781 104.462 342.07 104.146 342.422 103.893C342.773 103.632 343.167 103.437 343.604 103.307C344.04 103.17 344.499 103.102 344.98 103.102ZM355.635 112.867C355.902 112.867 356.175 112.844 356.455 112.799C356.735 112.753 356.963 112.698 357.139 112.633V113.893C356.95 113.977 356.686 114.049 356.348 114.107C356.016 114.166 355.69 114.195 355.371 114.195C354.805 114.195 354.29 114.098 353.828 113.902C353.366 113.701 352.995 113.362 352.715 112.887C352.441 112.411 352.305 111.754 352.305 110.914V104.566H350.781V103.775L352.314 103.141L352.959 100.816H353.936V103.297H357.07V104.566H353.936V110.865C353.936 111.536 354.089 112.037 354.395 112.369C354.707 112.701 355.12 112.867 355.635 112.867Z" fill="#B5B5B5"/>
<rect x="168.5" y="226.5" width="213" height="47" rx="23.5" fill="white" stroke="#EEEEEE"/>
<path d="M216.684 243.723C218.526 243.723 219.87 244.084 220.717 244.807C221.57 245.523 221.996 246.551 221.996 247.893C221.996 248.498 221.895 249.074 221.693 249.621C221.498 250.161 221.179 250.64 220.736 251.057C220.294 251.467 219.711 251.792 218.988 252.033C218.272 252.268 217.393 252.385 216.352 252.385H214.613V258H212.953V243.723H216.684ZM216.527 245.139H214.613V250.959H216.166C217.077 250.959 217.836 250.861 218.441 250.666C219.053 250.471 219.512 250.155 219.818 249.719C220.124 249.276 220.277 248.69 220.277 247.961C220.277 247.01 219.975 246.304 219.369 245.842C218.764 245.373 217.816 245.139 216.527 245.139ZM229.604 247.102C229.818 247.102 230.043 247.115 230.277 247.141C230.512 247.16 230.72 247.189 230.902 247.229L230.697 248.732C230.521 248.687 230.326 248.651 230.111 248.625C229.896 248.599 229.695 248.586 229.506 248.586C229.076 248.586 228.669 248.674 228.285 248.85C227.908 249.019 227.576 249.266 227.289 249.592C227.003 249.911 226.778 250.298 226.615 250.754C226.452 251.203 226.371 251.704 226.371 252.258V258H224.74V247.297H226.088L226.264 249.27H226.332C226.553 248.872 226.82 248.511 227.133 248.186C227.445 247.854 227.807 247.59 228.217 247.395C228.633 247.199 229.096 247.102 229.604 247.102ZM242.152 252.629C242.152 253.508 242.038 254.292 241.811 254.982C241.583 255.673 241.254 256.255 240.824 256.73C240.395 257.206 239.874 257.57 239.262 257.824C238.656 258.072 237.969 258.195 237.201 258.195C236.485 258.195 235.827 258.072 235.229 257.824C234.636 257.57 234.122 257.206 233.686 256.73C233.256 256.255 232.921 255.673 232.68 254.982C232.445 254.292 232.328 253.508 232.328 252.629C232.328 251.457 232.527 250.461 232.924 249.641C233.321 248.814 233.887 248.186 234.623 247.756C235.365 247.32 236.247 247.102 237.27 247.102C238.246 247.102 239.099 247.32 239.828 247.756C240.564 248.192 241.133 248.824 241.537 249.65C241.947 250.471 242.152 251.464 242.152 252.629ZM234.008 252.629C234.008 253.488 234.122 254.234 234.35 254.865C234.577 255.497 234.929 255.985 235.404 256.33C235.88 256.675 236.492 256.848 237.24 256.848C237.982 256.848 238.591 256.675 239.066 256.33C239.548 255.985 239.903 255.497 240.131 254.865C240.359 254.234 240.473 253.488 240.473 252.629C240.473 251.776 240.359 251.04 240.131 250.422C239.903 249.797 239.551 249.315 239.076 248.977C238.601 248.638 237.986 248.469 237.23 248.469C236.117 248.469 235.3 248.837 234.779 249.572C234.265 250.308 234.008 251.327 234.008 252.629ZM247.943 262.805C246.537 262.805 245.453 262.541 244.691 262.014C243.93 261.493 243.549 260.76 243.549 259.816C243.549 259.146 243.76 258.573 244.184 258.098C244.613 257.622 245.206 257.307 245.961 257.15C245.681 257.02 245.44 256.825 245.238 256.564C245.043 256.304 244.945 256.005 244.945 255.666C244.945 255.275 245.053 254.934 245.268 254.641C245.489 254.341 245.824 254.055 246.273 253.781C245.714 253.553 245.258 253.169 244.906 252.629C244.561 252.082 244.389 251.447 244.389 250.725C244.389 249.956 244.548 249.302 244.867 248.762C245.186 248.215 245.648 247.798 246.254 247.512C246.859 247.225 247.592 247.082 248.451 247.082C248.64 247.082 248.829 247.092 249.018 247.111C249.213 247.124 249.398 247.147 249.574 247.18C249.75 247.206 249.903 247.238 250.033 247.277H253.705V248.322L251.732 248.566C251.928 248.82 252.09 249.126 252.221 249.484C252.351 249.842 252.416 250.24 252.416 250.676C252.416 251.743 252.055 252.593 251.332 253.225C250.609 253.85 249.617 254.162 248.354 254.162C248.054 254.162 247.748 254.136 247.436 254.084C247.117 254.26 246.872 254.455 246.703 254.67C246.54 254.885 246.459 255.132 246.459 255.412C246.459 255.62 246.521 255.786 246.645 255.91C246.775 256.034 246.96 256.125 247.201 256.184C247.442 256.236 247.732 256.262 248.07 256.262H249.955C251.12 256.262 252.012 256.506 252.631 256.994C253.256 257.482 253.568 258.195 253.568 259.133C253.568 260.318 253.087 261.226 252.123 261.857C251.16 262.489 249.766 262.805 247.943 262.805ZM247.992 261.535C248.878 261.535 249.61 261.444 250.189 261.262C250.775 261.086 251.212 260.829 251.498 260.49C251.791 260.158 251.938 259.761 251.938 259.299C251.938 258.869 251.84 258.544 251.645 258.322C251.449 258.107 251.163 257.964 250.785 257.893C250.408 257.814 249.945 257.775 249.398 257.775H247.543C247.061 257.775 246.641 257.85 246.283 258C245.925 258.15 245.648 258.371 245.453 258.664C245.264 258.957 245.17 259.322 245.17 259.758C245.17 260.337 245.414 260.777 245.902 261.076C246.391 261.382 247.087 261.535 247.992 261.535ZM248.412 252.98C249.187 252.98 249.77 252.785 250.16 252.395C250.551 252.004 250.746 251.434 250.746 250.686C250.746 249.885 250.548 249.286 250.15 248.889C249.753 248.485 249.167 248.283 248.393 248.283C247.65 248.283 247.077 248.492 246.674 248.908C246.277 249.318 246.078 249.921 246.078 250.715C246.078 251.444 246.28 252.004 246.684 252.395C247.087 252.785 247.663 252.98 248.412 252.98ZM260.678 247.102C260.893 247.102 261.117 247.115 261.352 247.141C261.586 247.16 261.794 247.189 261.977 247.229L261.771 248.732C261.596 248.687 261.4 248.651 261.186 248.625C260.971 248.599 260.769 248.586 260.58 248.586C260.15 248.586 259.743 248.674 259.359 248.85C258.982 249.019 258.65 249.266 258.363 249.592C258.077 249.911 257.852 250.298 257.689 250.754C257.527 251.203 257.445 251.704 257.445 252.258V258H255.814V247.297H257.162L257.338 249.27H257.406C257.628 248.872 257.895 248.511 258.207 248.186C258.52 247.854 258.881 247.59 259.291 247.395C259.708 247.199 260.17 247.102 260.678 247.102ZM268.002 247.121C269.278 247.121 270.225 247.408 270.844 247.98C271.462 248.553 271.771 249.468 271.771 250.725V258H270.59L270.277 256.418H270.199C269.9 256.809 269.587 257.137 269.262 257.404C268.936 257.665 268.559 257.863 268.129 258C267.706 258.13 267.185 258.195 266.566 258.195C265.915 258.195 265.336 258.081 264.828 257.854C264.327 257.626 263.93 257.281 263.637 256.818C263.35 256.356 263.207 255.77 263.207 255.061C263.207 253.993 263.63 253.173 264.477 252.6C265.323 252.027 266.612 251.714 268.344 251.662L270.189 251.584V250.93C270.189 250.005 269.991 249.357 269.594 248.986C269.197 248.615 268.637 248.43 267.914 248.43C267.354 248.43 266.82 248.511 266.312 248.674C265.805 248.837 265.323 249.029 264.867 249.25L264.369 248.02C264.851 247.772 265.404 247.561 266.029 247.385C266.654 247.209 267.312 247.121 268.002 247.121ZM270.17 252.727L268.539 252.795C267.204 252.847 266.264 253.065 265.717 253.449C265.17 253.833 264.896 254.377 264.896 255.08C264.896 255.692 265.082 256.145 265.453 256.438C265.824 256.73 266.316 256.877 266.928 256.877C267.878 256.877 268.656 256.613 269.262 256.086C269.867 255.559 270.17 254.768 270.17 253.713V252.727ZM286.732 247.102C287.911 247.102 288.799 247.411 289.398 248.029C289.997 248.641 290.297 249.628 290.297 250.988V258H288.695V251.066C288.695 250.201 288.507 249.553 288.129 249.123C287.758 248.687 287.204 248.469 286.469 248.469C285.434 248.469 284.682 248.768 284.213 249.367C283.744 249.966 283.51 250.848 283.51 252.014V258H281.898V251.066C281.898 250.487 281.814 250.005 281.645 249.621C281.482 249.237 281.234 248.951 280.902 248.762C280.577 248.566 280.163 248.469 279.662 248.469C278.952 248.469 278.383 248.615 277.953 248.908C277.523 249.201 277.211 249.637 277.016 250.217C276.827 250.79 276.732 251.496 276.732 252.336V258H275.111V247.297H276.42L276.664 248.811H276.752C276.967 248.439 277.237 248.127 277.562 247.873C277.888 247.619 278.253 247.427 278.656 247.297C279.06 247.167 279.49 247.102 279.945 247.102C280.759 247.102 281.439 247.255 281.986 247.561C282.54 247.86 282.94 248.319 283.188 248.938H283.275C283.627 248.319 284.109 247.86 284.721 247.561C285.333 247.255 286.003 247.102 286.732 247.102ZM305.248 247.102C306.426 247.102 307.315 247.411 307.914 248.029C308.513 248.641 308.812 249.628 308.812 250.988V258H307.211V251.066C307.211 250.201 307.022 249.553 306.645 249.123C306.273 248.687 305.72 248.469 304.984 248.469C303.949 248.469 303.197 248.768 302.729 249.367C302.26 249.966 302.025 250.848 302.025 252.014V258H300.414V251.066C300.414 250.487 300.329 250.005 300.16 249.621C299.997 249.237 299.75 248.951 299.418 248.762C299.092 248.566 298.679 248.469 298.178 248.469C297.468 248.469 296.898 248.615 296.469 248.908C296.039 249.201 295.727 249.637 295.531 250.217C295.342 250.79 295.248 251.496 295.248 252.336V258H293.627V247.297H294.936L295.18 248.811H295.268C295.482 248.439 295.753 248.127 296.078 247.873C296.404 247.619 296.768 247.427 297.172 247.297C297.576 247.167 298.005 247.102 298.461 247.102C299.275 247.102 299.955 247.255 300.502 247.561C301.055 247.86 301.456 248.319 301.703 248.938H301.791C302.143 248.319 302.624 247.86 303.236 247.561C303.848 247.255 304.519 247.102 305.248 247.102ZM313.764 247.297V258H312.143V247.297H313.764ZM312.973 243.293C313.24 243.293 313.467 243.381 313.656 243.557C313.852 243.726 313.949 243.993 313.949 244.357C313.949 244.715 313.852 244.982 313.656 245.158C313.467 245.334 313.24 245.422 312.973 245.422C312.693 245.422 312.458 245.334 312.27 245.158C312.087 244.982 311.996 244.715 311.996 244.357C311.996 243.993 312.087 243.726 312.27 243.557C312.458 243.381 312.693 243.293 312.973 243.293ZM322.27 247.102C323.539 247.102 324.499 247.414 325.15 248.039C325.801 248.658 326.127 249.654 326.127 251.027V258H324.525V251.135C324.525 250.243 324.32 249.576 323.91 249.133C323.507 248.69 322.885 248.469 322.045 248.469C320.86 248.469 320.027 248.804 319.545 249.475C319.063 250.145 318.822 251.118 318.822 252.395V258H317.201V247.297H318.51L318.754 248.84H318.842C319.07 248.462 319.359 248.146 319.711 247.893C320.062 247.632 320.456 247.437 320.893 247.307C321.329 247.17 321.788 247.102 322.27 247.102ZM332.455 262.805C331.049 262.805 329.965 262.541 329.203 262.014C328.441 261.493 328.061 260.76 328.061 259.816C328.061 259.146 328.272 258.573 328.695 258.098C329.125 257.622 329.717 257.307 330.473 257.15C330.193 257.02 329.952 256.825 329.75 256.564C329.555 256.304 329.457 256.005 329.457 255.666C329.457 255.275 329.564 254.934 329.779 254.641C330.001 254.341 330.336 254.055 330.785 253.781C330.225 253.553 329.77 253.169 329.418 252.629C329.073 252.082 328.9 251.447 328.9 250.725C328.9 249.956 329.06 249.302 329.379 248.762C329.698 248.215 330.16 247.798 330.766 247.512C331.371 247.225 332.104 247.082 332.963 247.082C333.152 247.082 333.34 247.092 333.529 247.111C333.725 247.124 333.91 247.147 334.086 247.18C334.262 247.206 334.415 247.238 334.545 247.277H338.217V248.322L336.244 248.566C336.439 248.82 336.602 249.126 336.732 249.484C336.863 249.842 336.928 250.24 336.928 250.676C336.928 251.743 336.566 252.593 335.844 253.225C335.121 253.85 334.128 254.162 332.865 254.162C332.566 254.162 332.26 254.136 331.947 254.084C331.628 254.26 331.384 254.455 331.215 254.67C331.052 254.885 330.971 255.132 330.971 255.412C330.971 255.62 331.033 255.786 331.156 255.91C331.286 256.034 331.472 256.125 331.713 256.184C331.954 256.236 332.243 256.262 332.582 256.262H334.467C335.632 256.262 336.524 256.506 337.143 256.994C337.768 257.482 338.08 258.195 338.08 259.133C338.08 260.318 337.598 261.226 336.635 261.857C335.671 262.489 334.278 262.805 332.455 262.805ZM332.504 261.535C333.389 261.535 334.122 261.444 334.701 261.262C335.287 261.086 335.723 260.829 336.01 260.49C336.303 260.158 336.449 259.761 336.449 259.299C336.449 258.869 336.352 258.544 336.156 258.322C335.961 258.107 335.674 257.964 335.297 257.893C334.919 257.814 334.457 257.775 333.91 257.775H332.055C331.573 257.775 331.153 257.85 330.795 258C330.437 258.15 330.16 258.371 329.965 258.664C329.776 258.957 329.682 259.322 329.682 259.758C329.682 260.337 329.926 260.777 330.414 261.076C330.902 261.382 331.599 261.535 332.504 261.535ZM332.924 252.98C333.699 252.98 334.281 252.785 334.672 252.395C335.062 252.004 335.258 251.434 335.258 250.686C335.258 249.885 335.059 249.286 334.662 248.889C334.265 248.485 333.679 248.283 332.904 248.283C332.162 248.283 331.589 248.492 331.186 248.908C330.788 249.318 330.59 249.921 330.59 250.715C330.59 251.444 330.792 252.004 331.195 252.395C331.599 252.785 332.175 252.98 332.924 252.98Z" fill="#B5B5B5"/>
<rect x="0.5" y="226.5" width="159" height="47" rx="23.5" fill="white" stroke="#EEEEEE"/>
<path d="M21.6133 258H19.9531V243.723H27.9023V245.188H21.6133V250.422H27.5215V251.877H21.6133V258ZM31.6621 247.297V258H30.041V247.297H31.6621ZM30.8711 243.293C31.138 243.293 31.3659 243.381 31.5547 243.557C31.75 243.726 31.8477 243.993 31.8477 244.357C31.8477 244.715 31.75 244.982 31.5547 245.158C31.3659 245.334 31.138 245.422 30.8711 245.422C30.5911 245.422 30.3568 245.334 30.168 245.158C29.9857 244.982 29.8945 244.715 29.8945 244.357C29.8945 243.993 29.9857 243.726 30.168 243.557C30.3568 243.381 30.5911 243.293 30.8711 243.293ZM38.0879 262.805C36.6816 262.805 35.5977 262.541 34.8359 262.014C34.0742 261.493 33.6934 260.76 33.6934 259.816C33.6934 259.146 33.9049 258.573 34.3281 258.098C34.7578 257.622 35.3503 257.307 36.1055 257.15C35.8255 257.02 35.5846 256.825 35.3828 256.564C35.1875 256.304 35.0898 256.005 35.0898 255.666C35.0898 255.275 35.1973 254.934 35.4121 254.641C35.6335 254.341 35.9688 254.055 36.418 253.781C35.8581 253.553 35.4023 253.169 35.0508 252.629C34.7057 252.082 34.5332 251.447 34.5332 250.725C34.5332 249.956 34.6927 249.302 35.0117 248.762C35.3307 248.215 35.793 247.798 36.3984 247.512C37.0039 247.225 37.7363 247.082 38.5957 247.082C38.7845 247.082 38.9733 247.092 39.1621 247.111C39.3574 247.124 39.543 247.147 39.7188 247.18C39.8945 247.206 40.0475 247.238 40.1777 247.277H43.8496V248.322L41.877 248.566C42.0723 248.82 42.235 249.126 42.3652 249.484C42.4954 249.842 42.5605 250.24 42.5605 250.676C42.5605 251.743 42.1992 252.593 41.4766 253.225C40.7539 253.85 39.7611 254.162 38.498 254.162C38.1986 254.162 37.8926 254.136 37.5801 254.084C37.2611 254.26 37.0169 254.455 36.8477 254.67C36.6849 254.885 36.6035 255.132 36.6035 255.412C36.6035 255.62 36.6654 255.786 36.7891 255.91C36.9193 256.034 37.1048 256.125 37.3457 256.184C37.5866 256.236 37.8763 256.262 38.2148 256.262H40.0996C41.265 256.262 42.1569 256.506 42.7754 256.994C43.4004 257.482 43.7129 258.195 43.7129 259.133C43.7129 260.318 43.2311 261.226 42.2676 261.857C41.304 262.489 39.9108 262.805 38.0879 262.805ZM38.1367 261.535C39.0221 261.535 39.7546 261.444 40.334 261.262C40.9199 261.086 41.3561 260.829 41.6426 260.49C41.9355 260.158 42.082 259.761 42.082 259.299C42.082 258.869 41.9844 258.544 41.7891 258.322C41.5938 258.107 41.3073 257.964 40.9297 257.893C40.5521 257.814 40.0898 257.775 39.543 257.775H37.6875C37.2057 257.775 36.7858 257.85 36.4277 258C36.0697 258.15 35.793 258.371 35.5977 258.664C35.4089 258.957 35.3145 259.322 35.3145 259.758C35.3145 260.337 35.5586 260.777 36.0469 261.076C36.5352 261.382 37.2318 261.535 38.1367 261.535ZM38.5566 252.98C39.3314 252.98 39.9141 252.785 40.3047 252.395C40.6953 252.004 40.8906 251.434 40.8906 250.686C40.8906 249.885 40.6921 249.286 40.2949 248.889C39.8978 248.485 39.3118 248.283 38.5371 248.283C37.7949 248.283 37.222 248.492 36.8184 248.908C36.4212 249.318 36.2227 249.921 36.2227 250.715C36.2227 251.444 36.4245 252.004 36.8281 252.395C37.2318 252.785 37.8079 252.98 38.5566 252.98ZM57.5801 247.102C58.7585 247.102 59.6471 247.411 60.2461 248.029C60.8451 248.641 61.1445 249.628 61.1445 250.988V258H59.543V251.066C59.543 250.201 59.3542 249.553 58.9766 249.123C58.6055 248.687 58.0521 248.469 57.3164 248.469C56.2812 248.469 55.5293 248.768 55.0605 249.367C54.5918 249.966 54.3574 250.848 54.3574 252.014V258H52.7461V251.066C52.7461 250.487 52.6615 250.005 52.4922 249.621C52.3294 249.237 52.082 248.951 51.75 248.762C51.4245 248.566 51.0111 248.469 50.5098 248.469C49.8001 248.469 49.2305 248.615 48.8008 248.908C48.3711 249.201 48.0586 249.637 47.8633 250.217C47.6745 250.79 47.5801 251.496 47.5801 252.336V258H45.959V247.297H47.2676L47.5117 248.811H47.5996C47.8145 248.439 48.0846 248.127 48.4102 247.873C48.7357 247.619 49.1003 247.427 49.5039 247.297C49.9076 247.167 50.3372 247.102 50.793 247.102C51.6068 247.102 52.2871 247.255 52.834 247.561C53.3874 247.86 53.7878 248.319 54.0352 248.938H54.123C54.4746 248.319 54.9564 247.86 55.5684 247.561C56.1803 247.255 56.8509 247.102 57.5801 247.102ZM68.4785 247.121C69.7546 247.121 70.7018 247.408 71.3203 247.98C71.9388 248.553 72.248 249.468 72.248 250.725V258H71.0664L70.7539 256.418H70.6758C70.3763 256.809 70.0638 257.137 69.7383 257.404C69.4128 257.665 69.0352 257.863 68.6055 258C68.1823 258.13 67.6615 258.195 67.043 258.195C66.3919 258.195 65.8125 258.081 65.3047 257.854C64.8034 257.626 64.4062 257.281 64.1133 256.818C63.8268 256.356 63.6836 255.77 63.6836 255.061C63.6836 253.993 64.1068 253.173 64.9531 252.6C65.7995 252.027 67.0885 251.714 68.8203 251.662L70.666 251.584V250.93C70.666 250.005 70.4674 249.357 70.0703 248.986C69.6732 248.615 69.1133 248.43 68.3906 248.43C67.8307 248.43 67.2969 248.511 66.7891 248.674C66.2812 248.837 65.7995 249.029 65.3438 249.25L64.8457 248.02C65.3275 247.772 65.8809 247.561 66.5059 247.385C67.1309 247.209 67.7884 247.121 68.4785 247.121ZM70.6465 252.727L69.0156 252.795C67.681 252.847 66.7402 253.065 66.1934 253.449C65.6465 253.833 65.373 254.377 65.373 255.08C65.373 255.692 65.5586 256.145 65.9297 256.438C66.3008 256.73 66.7923 256.877 67.4043 256.877C68.3548 256.877 69.1328 256.613 69.7383 256.086C70.3438 255.559 70.6465 254.768 70.6465 253.713V252.727ZM92.3652 250.725C92.3652 252.333 92.0723 253.677 91.4863 254.758C90.9004 255.832 90.0508 256.643 88.9375 257.189C87.8307 257.73 86.4863 258 84.9043 258H81.0273V243.723H85.334C86.7858 243.723 88.0358 243.99 89.084 244.523C90.1322 245.051 90.9395 245.835 91.5059 246.877C92.0788 247.912 92.3652 249.195 92.3652 250.725ZM90.6172 250.783C90.6172 249.501 90.4023 248.443 89.9727 247.609C89.5495 246.776 88.9245 246.158 88.0977 245.754C87.2773 245.344 86.2715 245.139 85.0801 245.139H82.6875V256.574H84.709C86.6751 256.574 88.1497 256.089 89.1328 255.119C90.1224 254.149 90.6172 252.704 90.6172 250.783ZM99.416 247.102C100.327 247.102 101.109 247.303 101.76 247.707C102.411 248.111 102.909 248.677 103.254 249.406C103.599 250.129 103.771 250.975 103.771 251.945V252.951H96.3789C96.3984 254.208 96.7109 255.165 97.3164 255.822C97.9219 256.48 98.7747 256.809 99.875 256.809C100.552 256.809 101.151 256.747 101.672 256.623C102.193 256.499 102.733 256.317 103.293 256.076V257.502C102.753 257.743 102.215 257.919 101.682 258.029C101.154 258.14 100.529 258.195 99.8066 258.195C98.778 258.195 97.8796 257.987 97.1113 257.57C96.3496 257.147 95.7572 256.529 95.334 255.715C94.9108 254.901 94.6992 253.905 94.6992 252.727C94.6992 251.574 94.8913 250.578 95.2754 249.738C95.666 248.892 96.2129 248.241 96.916 247.785C97.6257 247.329 98.459 247.102 99.416 247.102ZM99.3965 248.43C98.5306 248.43 97.8405 248.713 97.3262 249.279C96.8118 249.846 96.5059 250.637 96.4082 251.652H102.072C102.066 251.014 101.965 250.454 101.77 249.973C101.581 249.484 101.291 249.107 100.9 248.84C100.51 248.566 100.008 248.43 99.3965 248.43ZM113.449 255.07C113.449 255.754 113.277 256.33 112.932 256.799C112.593 257.261 112.105 257.609 111.467 257.844C110.835 258.078 110.08 258.195 109.201 258.195C108.452 258.195 107.805 258.137 107.258 258.02C106.711 257.902 106.232 257.736 105.822 257.521V256.027C106.258 256.242 106.779 256.438 107.385 256.613C107.99 256.789 108.609 256.877 109.24 256.877C110.165 256.877 110.835 256.727 111.252 256.428C111.669 256.128 111.877 255.721 111.877 255.207C111.877 254.914 111.792 254.657 111.623 254.436C111.46 254.208 111.184 253.99 110.793 253.781C110.402 253.566 109.862 253.332 109.172 253.078C108.488 252.818 107.896 252.561 107.395 252.307C106.9 252.046 106.516 251.73 106.242 251.359C105.975 250.988 105.842 250.507 105.842 249.914C105.842 249.009 106.206 248.316 106.936 247.834C107.671 247.346 108.635 247.102 109.826 247.102C110.471 247.102 111.073 247.167 111.633 247.297C112.199 247.421 112.727 247.59 113.215 247.805L112.668 249.104C112.225 248.915 111.753 248.755 111.252 248.625C110.751 248.495 110.24 248.43 109.719 248.43C108.97 248.43 108.394 248.553 107.99 248.801C107.593 249.048 107.395 249.387 107.395 249.816C107.395 250.148 107.486 250.422 107.668 250.637C107.857 250.852 108.156 251.053 108.566 251.242C108.977 251.431 109.517 251.652 110.188 251.906C110.858 252.154 111.438 252.411 111.926 252.678C112.414 252.938 112.788 253.257 113.049 253.635C113.316 254.006 113.449 254.484 113.449 255.07ZM117.678 247.297V258H116.057V247.297H117.678ZM116.887 243.293C117.154 243.293 117.382 243.381 117.57 243.557C117.766 243.726 117.863 243.993 117.863 244.357C117.863 244.715 117.766 244.982 117.57 245.158C117.382 245.334 117.154 245.422 116.887 245.422C116.607 245.422 116.372 245.334 116.184 245.158C116.001 244.982 115.91 244.715 115.91 244.357C115.91 243.993 116.001 243.726 116.184 243.557C116.372 243.381 116.607 243.293 116.887 243.293ZM124.104 262.805C122.697 262.805 121.613 262.541 120.852 262.014C120.09 261.493 119.709 260.76 119.709 259.816C119.709 259.146 119.921 258.573 120.344 258.098C120.773 257.622 121.366 257.307 122.121 257.15C121.841 257.02 121.6 256.825 121.398 256.564C121.203 256.304 121.105 256.005 121.105 255.666C121.105 255.275 121.213 254.934 121.428 254.641C121.649 254.341 121.984 254.055 122.434 253.781C121.874 253.553 121.418 253.169 121.066 252.629C120.721 252.082 120.549 251.447 120.549 250.725C120.549 249.956 120.708 249.302 121.027 248.762C121.346 248.215 121.809 247.798 122.414 247.512C123.02 247.225 123.752 247.082 124.611 247.082C124.8 247.082 124.989 247.092 125.178 247.111C125.373 247.124 125.559 247.147 125.734 247.18C125.91 247.206 126.063 247.238 126.193 247.277H129.865V248.322L127.893 248.566C128.088 248.82 128.251 249.126 128.381 249.484C128.511 249.842 128.576 250.24 128.576 250.676C128.576 251.743 128.215 252.593 127.492 253.225C126.77 253.85 125.777 254.162 124.514 254.162C124.214 254.162 123.908 254.136 123.596 254.084C123.277 254.26 123.033 254.455 122.863 254.67C122.701 254.885 122.619 255.132 122.619 255.412C122.619 255.62 122.681 255.786 122.805 255.91C122.935 256.034 123.12 256.125 123.361 256.184C123.602 256.236 123.892 256.262 124.23 256.262H126.115C127.281 256.262 128.173 256.506 128.791 256.994C129.416 257.482 129.729 258.195 129.729 259.133C129.729 260.318 129.247 261.226 128.283 261.857C127.32 262.489 125.926 262.805 124.104 262.805ZM124.152 261.535C125.038 261.535 125.77 261.444 126.35 261.262C126.936 261.086 127.372 260.829 127.658 260.49C127.951 260.158 128.098 259.761 128.098 259.299C128.098 258.869 128 258.544 127.805 258.322C127.609 258.107 127.323 257.964 126.945 257.893C126.568 257.814 126.105 257.775 125.559 257.775H123.703C123.221 257.775 122.801 257.85 122.443 258C122.085 258.15 121.809 258.371 121.613 258.664C121.424 258.957 121.33 259.322 121.33 259.758C121.33 260.337 121.574 260.777 122.062 261.076C122.551 261.382 123.247 261.535 124.152 261.535ZM124.572 252.98C125.347 252.98 125.93 252.785 126.32 252.395C126.711 252.004 126.906 251.434 126.906 250.686C126.906 249.885 126.708 249.286 126.311 248.889C125.913 248.485 125.327 248.283 124.553 248.283C123.811 248.283 123.238 248.492 122.834 248.908C122.437 249.318 122.238 249.921 122.238 250.715C122.238 251.444 122.44 252.004 122.844 252.395C123.247 252.785 123.824 252.98 124.572 252.98ZM137.043 247.102C138.312 247.102 139.273 247.414 139.924 248.039C140.575 248.658 140.9 249.654 140.9 251.027V258H139.299V251.135C139.299 250.243 139.094 249.576 138.684 249.133C138.28 248.69 137.658 248.469 136.818 248.469C135.633 248.469 134.8 248.804 134.318 249.475C133.837 250.145 133.596 251.118 133.596 252.395V258H131.975V247.297H133.283L133.527 248.84H133.615C133.843 248.462 134.133 248.146 134.484 247.893C134.836 247.632 135.23 247.437 135.666 247.307C136.102 247.17 136.561 247.102 137.043 247.102Z" fill="#B5B5B5"/>
</svg>
