<svg width="331" height="82" viewBox="0 0 331 82" fill="none" xmlns="http://www.w3.org/2000/svg">
<rect x="0.75" y="0.75" width="329.5" height="80.5" rx="9.25" stroke="#5D48E0" stroke-width="1.5"/>
<rect x="56" y="16" width="50" height="50" rx="25" fill="#5D48E0"/>
<path d="M82.6465 49H80.3418V39.8105C80.3418 39.5046 80.3451 39.1986 80.3516 38.8926C80.3581 38.5866 80.3646 38.2871 80.3711 37.9941C80.3841 37.7012 80.4004 37.4212 80.4199 37.1543C80.2832 37.304 80.1139 37.4668 79.9121 37.6426C79.7168 37.8184 79.5085 38.0007 79.2871 38.1895L77.6465 39.498L76.4941 38.043L80.7324 34.7227H82.6465V49Z" fill="white"/>
<path d="M146.566 49H136.898V47.2715L140.6 43.5215C141.316 42.7923 141.905 42.1641 142.367 41.6367C142.829 41.1029 143.171 40.5983 143.393 40.123C143.62 39.6478 143.734 39.1302 143.734 38.5703C143.734 37.8802 143.536 37.3594 143.139 37.0078C142.742 36.6497 142.217 36.4707 141.566 36.4707C140.948 36.4707 140.375 36.5944 139.848 36.8418C139.327 37.0827 138.786 37.4277 138.227 37.877L136.967 36.3633C137.364 36.0247 137.787 35.7155 138.236 35.4355C138.692 35.1556 139.2 34.9342 139.76 34.7715C140.32 34.6022 140.958 34.5176 141.674 34.5176C142.579 34.5176 143.36 34.6803 144.018 35.0059C144.675 35.3249 145.18 35.7708 145.531 36.3438C145.889 36.9167 146.068 37.584 146.068 38.3457C146.068 39.1139 145.915 39.8236 145.609 40.4746C145.303 41.1257 144.867 41.7702 144.301 42.4082C143.734 43.0397 143.061 43.7266 142.279 44.4688L139.809 46.8809V46.9883H146.566V49Z" fill="#5D48E0"/>
<path d="M188.02 37.9844C188.02 38.6289 187.889 39.1888 187.629 39.6641C187.368 40.1393 187.01 40.5299 186.555 40.8359C186.105 41.1354 185.585 41.3503 184.992 41.4805V41.5488C186.132 41.6921 186.991 42.0501 187.57 42.623C188.156 43.196 188.449 43.9544 188.449 44.8984C188.449 45.7253 188.251 46.4642 187.854 47.1152C187.456 47.7598 186.848 48.2676 186.027 48.6387C185.207 49.0098 184.152 49.1953 182.863 49.1953C182.089 49.1953 181.369 49.1335 180.705 49.0098C180.048 48.8861 179.423 48.6875 178.83 48.4141V46.373C179.436 46.6725 180.08 46.9036 180.764 47.0664C181.447 47.2292 182.095 47.3105 182.707 47.3105C183.898 47.3105 184.748 47.0892 185.256 46.6465C185.764 46.1973 186.018 45.5788 186.018 44.791C186.018 44.2832 185.884 43.8665 185.617 43.541C185.357 43.2155 184.95 42.9714 184.396 42.8086C183.85 42.6458 183.143 42.5645 182.277 42.5645H181.018V40.7188H182.287C183.114 40.7188 183.778 40.6211 184.279 40.4258C184.781 40.224 185.142 39.9473 185.363 39.5957C185.591 39.2441 185.705 38.834 185.705 38.3652C185.705 37.7533 185.507 37.278 185.109 36.9395C184.712 36.5944 184.123 36.4219 183.342 36.4219C182.86 36.4219 182.421 36.4772 182.023 36.5879C181.633 36.6986 181.271 36.8385 180.939 37.0078C180.607 37.1771 180.292 37.3594 179.992 37.5547L178.889 35.9629C179.429 35.5592 180.074 35.2174 180.822 34.9375C181.571 34.6576 182.443 34.5176 183.439 34.5176C184.904 34.5176 186.034 34.8333 186.828 35.4648C187.622 36.0898 188.02 36.9297 188.02 37.9844Z" fill="#5D48E0"/>
<path d="M211.309 47.7891C211.309 47.2552 211.445 46.8809 211.719 46.666C211.999 46.4447 212.337 46.334 212.734 46.334C213.132 46.334 213.47 46.4447 213.75 46.666C214.036 46.8809 214.18 47.2552 214.18 47.7891C214.18 48.3099 214.036 48.6875 213.75 48.9219C213.47 49.1497 213.132 49.2637 212.734 49.2637C212.337 49.2637 211.999 49.1497 211.719 48.9219C211.445 48.6875 211.309 48.3099 211.309 47.7891ZM216.797 47.7891C216.797 47.2552 216.934 46.8809 217.207 46.666C217.487 46.4447 217.826 46.334 218.223 46.334C218.62 46.334 218.958 46.4447 219.238 46.666C219.525 46.8809 219.668 47.2552 219.668 47.7891C219.668 48.3099 219.525 48.6875 219.238 48.9219C218.958 49.1497 218.62 49.2637 218.223 49.2637C217.826 49.2637 217.487 49.1497 217.207 48.9219C216.934 48.6875 216.797 48.3099 216.797 47.7891ZM222.285 47.7891C222.285 47.2552 222.422 46.8809 222.695 46.666C222.975 46.4447 223.314 46.334 223.711 46.334C224.108 46.334 224.447 46.4447 224.727 46.666C225.013 46.8809 225.156 47.2552 225.156 47.7891C225.156 48.3099 225.013 48.6875 224.727 48.9219C224.447 49.1497 224.108 49.2637 223.711 49.2637C223.314 49.2637 222.975 49.1497 222.695 48.9219C222.422 48.6875 222.285 48.3099 222.285 47.7891ZM227.773 47.7891C227.773 47.2552 227.91 46.8809 228.184 46.666C228.464 46.4447 228.802 46.334 229.199 46.334C229.596 46.334 229.935 46.4447 230.215 46.666C230.501 46.8809 230.645 47.2552 230.645 47.7891C230.645 48.3099 230.501 48.6875 230.215 48.9219C229.935 49.1497 229.596 49.2637 229.199 49.2637C228.802 49.2637 228.464 49.1497 228.184 48.9219C227.91 48.6875 227.773 48.3099 227.773 47.7891Z" fill="#5D48E0"/>
<path d="M259.646 49H257.342V39.8105C257.342 39.5046 257.345 39.1986 257.352 38.8926C257.358 38.5866 257.365 38.2871 257.371 37.9941C257.384 37.7012 257.4 37.4212 257.42 37.1543C257.283 37.304 257.114 37.4668 256.912 37.6426C256.717 37.8184 256.508 38.0007 256.287 38.1895L254.646 39.498L253.494 38.043L257.732 34.7227H259.646V49ZM269.158 34.5273C269.985 34.5273 270.73 34.6576 271.395 34.918C272.059 35.1719 272.586 35.5527 272.977 36.0605C273.367 36.5684 273.562 37.1966 273.562 37.9453C273.562 38.5247 273.442 39.0293 273.201 39.459C272.967 39.8887 272.648 40.2663 272.244 40.5918C271.84 40.9108 271.388 41.194 270.887 41.4414C271.447 41.7148 271.961 42.0306 272.43 42.3887C272.905 42.7402 273.286 43.1536 273.572 43.6289C273.865 44.1042 274.012 44.6608 274.012 45.2988C274.012 46.0996 273.807 46.793 273.396 47.3789C272.993 47.9583 272.43 48.4076 271.707 48.7266C270.984 49.0391 270.141 49.1953 269.178 49.1953C268.143 49.1953 267.26 49.0423 266.531 48.7363C265.802 48.4303 265.249 47.9941 264.871 47.4277C264.493 46.8548 264.305 46.1712 264.305 45.377C264.305 44.7194 264.435 44.1497 264.695 43.668C264.956 43.1862 265.304 42.7695 265.74 42.418C266.183 42.0664 266.668 41.7702 267.195 41.5293C266.746 41.2624 266.336 40.9629 265.965 40.6309C265.594 40.2923 265.298 39.9049 265.076 39.4688C264.861 39.026 264.754 38.515 264.754 37.9355C264.754 37.1934 264.952 36.5716 265.35 36.0703C265.747 35.5625 266.277 35.1784 266.941 34.918C267.612 34.6576 268.351 34.5273 269.158 34.5273ZM266.492 45.2891C266.492 45.9141 266.714 46.4284 267.156 46.832C267.599 47.2357 268.26 47.4375 269.139 47.4375C270.011 47.4375 270.675 47.2389 271.131 46.8418C271.587 46.4447 271.814 45.9206 271.814 45.2695C271.814 44.8529 271.697 44.485 271.463 44.166C271.235 43.847 270.926 43.5638 270.535 43.3164C270.151 43.0625 269.725 42.8281 269.256 42.6133L268.943 42.4863C268.436 42.7012 267.999 42.9453 267.635 43.2188C267.27 43.4857 266.987 43.7884 266.785 44.127C266.59 44.4655 266.492 44.8529 266.492 45.2891ZM269.139 36.2949C268.507 36.2949 267.986 36.4512 267.576 36.7637C267.173 37.0697 266.971 37.5124 266.971 38.0918C266.971 38.502 267.068 38.8535 267.264 39.1465C267.465 39.4395 267.736 39.6934 268.074 39.9082C268.413 40.1165 268.787 40.3118 269.197 40.4941C269.594 40.3184 269.952 40.1263 270.271 39.918C270.597 39.7031 270.854 39.4492 271.043 39.1562C271.238 38.8568 271.336 38.4987 271.336 38.082C271.336 37.5091 271.131 37.0697 270.721 36.7637C270.317 36.4512 269.79 36.2949 269.139 36.2949Z" fill="#5D48E0"/>
<path d="M32 49L24 41L32 33" stroke="#5D48E0" stroke-width="2" stroke-linecap="round" stroke-linejoin="round"/>
<path d="M299 49L307 41L299 33" stroke="#3B3E4E" stroke-width="2" stroke-linecap="round" stroke-linejoin="round"/>
</svg>
