<svg width="216" height="181" viewBox="0 0 216 181" fill="none" xmlns="http://www.w3.org/2000/svg">
<path d="M205.067 4H10.9333C7.10416 4 4 7.10416 4 10.9333V142.667C4 146.496 7.10416 149.6 10.9333 149.6H205.067C208.896 149.6 212 146.496 212 142.667V10.9333C212 7.10416 208.896 4 205.067 4Z" stroke="#5D48E0" stroke-width="6.93333" stroke-linecap="round" stroke-linejoin="round"/>
<path d="M212 128.8H4" stroke="#5D48E0" stroke-width="6.93333" stroke-linecap="round" stroke-linejoin="round"/>
<path d="M146.133 177.333H69.8662" stroke="#5D48E0" stroke-width="6.93333" stroke-linecap="round" stroke-linejoin="round"/>
<path d="M121.866 149.6L128.8 177.333" stroke="#5D48E0" stroke-width="6.93333" stroke-linecap="round" stroke-linejoin="round"/>
<path d="M94.1326 149.6L87.1992 177.333" stroke="#5D48E0" stroke-width="6.93333" stroke-linecap="round" stroke-linejoin="round"/>
<path d="M21.334 21.3333H101.067V66.3999H21.334V21.3333Z" stroke="#5D48E0" stroke-width="6.93333" stroke-linecap="round" stroke-linejoin="round"/>
<path d="M114.934 21.3333H194.667V38.6666H114.934V21.3333Z" stroke="#5D48E0" stroke-width="6.93333" stroke-linecap="round" stroke-linejoin="round"/>
<path d="M194.667 66.4001H114.934" stroke="#5D48E0" stroke-width="6.93333" stroke-linecap="round" stroke-linejoin="round"/>
<path d="M114.934 52.5334H194.667" stroke="#5D48E0" stroke-width="6.93333" stroke-linecap="round" stroke-linejoin="round"/>
<path d="M21.334 83.7334H69.8673V111.467H21.334V83.7334Z" stroke="#5D48E0" stroke-width="6.93333" stroke-linecap="round" stroke-linejoin="round"/>
<path d="M83.7332 83.7334H132.266V111.467H83.7332V83.7334Z" stroke="#5D48E0" stroke-width="6.93333" stroke-linecap="round" stroke-linejoin="round"/>
<path d="M146.134 83.7334H194.667V111.467H146.134V83.7334Z" stroke="#5D48E0" stroke-width="6.93333" stroke-linecap="round" stroke-linejoin="round"/>
<path d="M42.1326 49.0669C45.9617 49.0669 49.0659 45.9627 49.0659 42.1335C49.0659 38.3044 45.9617 35.2002 42.1326 35.2002C38.3034 35.2002 35.1992 38.3044 35.1992 42.1335C35.1992 45.9627 38.3034 49.0669 42.1326 49.0669Z" stroke="#5D48E0" stroke-width="6.93333" stroke-linecap="round" stroke-linejoin="round"/>
<path d="M101.067 52.5334L87.1999 38.6667L69.8665 56.0001L62.9332 49.0667L45.5999 66.4001" stroke="#5D48E0" stroke-width="6.93333" stroke-linecap="round" stroke-linejoin="round"/>
</svg>
