<svg width="30" height="30" viewBox="0 0 30 30" fill="none" xmlns="http://www.w3.org/2000/svg">
<path d="M28.1105 21.5881V25.5267C28.1119 25.8923 28.037 26.2543 27.8906 26.5893C27.7441 26.9243 27.5293 27.225 27.2598 27.4722C26.9904 27.7194 26.6723 27.9076 26.3259 28.0247C25.9796 28.1418 25.6126 28.1854 25.2484 28.1524C21.2085 27.7135 17.3279 26.333 13.9184 24.1219C10.7462 22.1062 8.05685 19.4169 6.04116 16.2447C3.82238 12.8197 2.4416 8.92024 2.01066 4.86218C1.97785 4.49913 2.02099 4.13322 2.13735 3.78776C2.2537 3.4423 2.44071 3.12485 2.68648 2.85562C2.93224 2.58639 3.23137 2.37129 3.56482 2.224C3.89827 2.07671 4.25873 2.00047 4.62326 2.00013H8.56186C9.19901 1.99386 9.81669 2.21948 10.2998 2.63494C10.7829 3.0504 11.0984 3.62736 11.1876 4.25826C11.3538 5.5187 11.6621 6.75629 12.1066 7.94742C12.2832 8.41732 12.3215 8.92802 12.2168 9.41898C12.1121 9.90995 11.8688 10.3606 11.5158 10.7176L9.84847 12.3849C11.7174 15.6717 14.4389 18.3932 17.7257 20.2621L19.393 18.5948C19.75 18.2418 20.2006 17.9985 20.6916 17.8938C21.1826 17.7891 21.6933 17.8273 22.1632 18.004C23.3543 18.4485 24.5919 18.7567 25.8523 18.923C26.4901 19.013 27.0725 19.3342 27.4889 19.8256C27.9052 20.317 28.1264 20.9442 28.1105 21.5881Z" stroke="white" stroke-width="2.5" stroke-linecap="round" stroke-linejoin="round"/>
</svg>
