<svg width="214" height="214" viewBox="0 0 214 214" fill="none" xmlns="http://www.w3.org/2000/svg">
<path d="M204.423 213.966C209.609 213.966 213.825 209.748 213.825 204.563V163.16C213.825 155.766 209.79 149.139 203.378 145.732V142.923H209.646V129.341C209.646 124.156 205.43 119.938 200.244 119.938H193.348V92.6682C193.348 76.272 183.364 61.6879 168.274 55.6887V0H136.931V55.6887C125.248 60.3346 116.629 70.1292 113.331 81.9235L110.256 76.1773V51.1228H25.0741V76.0141L0 113.625V213.966H204.423ZM207.443 161.449H151.256C151.863 156.622 155.006 152.484 159.619 150.639L161.588 149.851V142.923H197.109V149.851L199.08 150.639C203.693 152.484 206.835 156.622 207.443 161.449ZM200.244 126.206C201.972 126.206 203.378 127.612 203.378 129.341V136.654H155.319V129.341C155.319 127.612 156.726 126.206 158.453 126.206H200.244ZM143.2 6.26853H162.006V24.6562H143.2V6.26853ZM31.3427 57.3913H103.987V73.8283H31.3427V57.3913ZM81.7684 207.697H6.26853V117.708H81.7701V207.697H81.7684ZM8.98979 111.439L29.8849 80.0968H101.63L83.1152 111.439H8.98979ZM124.117 207.697H88.0386V115.431L106.988 83.3535C106.988 83.4204 123.923 114.93 124.117 115.361C124.112 115.351 124.122 115.37 124.117 115.361V207.697ZM145.412 207.697H130.385V113.789L118.173 90.9721C118.864 77.2188 127.881 65.245 141.057 60.8521L143.2 60.1387V30.9248H162.006V60.1387L164.149 60.8521C177.865 65.4245 187.08 78.2097 187.08 92.6682V119.938H158.453C153.269 119.938 149.051 124.156 149.051 129.341V142.923H155.319V145.732C148.909 149.139 144.872 155.766 144.872 163.16V204.563C144.872 205.662 145.064 206.716 145.412 207.697ZM207.557 204.563C207.557 206.292 206.151 207.697 204.423 207.697H154.274C152.547 207.697 151.14 206.292 151.14 204.563V201.568H207.557V204.563ZM207.557 195.299H151.14V167.717H207.557V195.299Z" fill="#5D48E0"/>
<path d="M55.3721 86.3652H61.6406V92.6338H55.3721V86.3652Z" fill="#5D48E0"/>
<path d="M23.9521 100.3L29.1678 103.775L36.5953 92.6338H49.103V86.3652H33.2407L23.9521 100.3Z" fill="#5D48E0"/>
<path d="M174.542 92.6095L180.811 92.5932C180.806 90.2262 180.493 87.8722 179.884 85.595L173.829 87.216C174.298 88.9692 174.538 90.7845 174.542 92.6095Z" fill="#5D48E0"/>
<path d="M171.752 82.1927L177.186 79.0682C173.855 73.2748 168.52 68.9178 162.166 66.8005L160.185 72.7458C165.079 74.3783 169.187 77.7329 171.752 82.1927Z" fill="#5D48E0"/>
<path d="M20.5459 150.863H62.0586V157.131H20.5459V150.863Z" fill="#5D48E0"/>
<path d="M20.5459 166.743H65.4018V173.011H20.5459V166.743Z" fill="#5D48E0"/>
<path d="M20.5459 182.623H47.0255V188.892H20.5459V182.623Z" fill="#5D48E0"/>
<path d="M165.767 178.374H172.035V184.643H165.767V178.374Z" fill="#5D48E0"/>
<path d="M178.303 178.374H184.572V184.643H178.303V178.374Z" fill="#5D48E0"/>
<path d="M190.841 178.374H197.109V184.643H190.841V178.374Z" fill="#5D48E0"/>
</svg>
