<svg width="79" height="78" viewBox="0 0 79 78" fill="none" xmlns="http://www.w3.org/2000/svg">
<rect x="2.62507" y="1.92976" width="73.8252" height="73.8252" rx="6.11091" stroke="white" stroke-width="3.85952"/>
<path d="M46.5937 32.9902C49.162 32.9902 51.625 34.0105 53.441 35.8265C55.257 37.6425 56.2773 40.1056 56.2773 42.6738V53.9713H49.8216V42.6738C49.8216 41.8177 49.4815 40.9967 48.8762 40.3914C48.2708 39.786 47.4498 39.4459 46.5937 39.4459C45.7376 39.4459 44.9166 39.786 44.3113 40.3914C43.7059 40.9967 43.3659 41.8177 43.3659 42.6738V53.9713H36.9102V42.6738C36.9102 40.1056 37.9304 37.6425 39.7464 35.8265C41.5624 34.0105 44.0255 32.9902 46.5937 32.9902Z" fill="white"/>
<path d="M30.454 34.603H23.9983V53.9701H30.454V34.603Z" fill="white"/>
<path d="M27.2259 29.7609C29.0086 29.7609 30.4538 28.3157 30.4538 26.533C30.4538 24.7503 29.0086 23.3052 27.2259 23.3052C25.4432 23.3052 23.998 24.7503 23.998 26.533C23.998 28.3157 25.4432 29.7609 27.2259 29.7609Z" fill="white"/>
</svg>
