<svg width="178" height="213" viewBox="0 0 178 213" fill="none" xmlns="http://www.w3.org/2000/svg">
<path d="M44.4989 4H44.8871C43.94 4.00041 43.7065 5.31827 44.5967 5.6433L133.861 38.2478C136.761 39.3078 138.687 42.0632 138.687 45.1526" stroke="white" stroke-width="6.18712" stroke-miterlimit="10" stroke-linecap="round" stroke-linejoin="round"/>
<path d="M174.782 20.4495V8.40111C174.782 5.97163 172.815 4 170.381 4H44.4982C42.0687 4 40.0967 5.97163 40.0967 8.40111V40.0132" stroke="white" stroke-width="6.18712" stroke-miterlimit="10" stroke-linecap="round" stroke-linejoin="round"/>
<path d="M174.782 34.886V168.586C174.782 171.019 172.815 172.987 170.381 172.987H138.687" stroke="white" stroke-width="6.18712" stroke-miterlimit="10" stroke-linecap="round" stroke-linejoin="round"/>
<path d="M4 167.84V44.4139C4 41.9828 5.97081 40.012 8.40193 40.012H134.286C136.717 40.012 138.687 41.9828 138.687 44.4139V204.598C138.687 207.029 136.717 209 134.286 209H8.40193C5.97081 209 4 207.029 4 204.598V182.276" stroke="white" stroke-width="6.18712" stroke-miterlimit="10" stroke-linecap="round" stroke-linejoin="round"/>
<path d="M74.2549 190.042L92.8554 143.875L111.456 190.042" stroke="white" stroke-width="6.18712" stroke-miterlimit="10" stroke-linecap="round" stroke-linejoin="round"/>
<path d="M80.292 175.058H105.277" stroke="white" stroke-width="6.18712" stroke-miterlimit="10" stroke-linecap="round" stroke-linejoin="round"/>
<path d="M75.4224 123.206H23.8597C22.1616 123.206 20.7852 121.83 20.7852 120.132V68.5692C20.7852 66.8711 22.1616 65.4946 23.8597 65.4946H75.4224C77.1206 65.4946 78.497 66.8711 78.497 68.5692V120.132C78.497 121.83 77.1206 123.206 75.4224 123.206Z" stroke="white" stroke-width="6.18712" stroke-miterlimit="10" stroke-linecap="round" stroke-linejoin="round"/>
<path d="M37.5603 76.1023C34.0296 76.1023 31.167 78.9649 31.167 82.4957C31.167 86.0264 34.0296 88.889 37.5603 88.889C41.0911 88.889 43.9537 86.0264 43.9537 82.4957C43.9537 78.9649 41.0915 76.1023 37.5603 76.1023Z" stroke="white" stroke-width="6.18712" stroke-miterlimit="10" stroke-linecap="round" stroke-linejoin="round"/>
<path d="M78.4966 96.5486L70.8184 90.8099C66.7311 87.7551 61.0477 88.0471 57.2954 91.5049L41.8775 105.712C38.8874 108.468 34.4306 108.901 30.965 106.775L20.7852 100.527" stroke="white" stroke-width="6.18712" stroke-miterlimit="10" stroke-linecap="round" stroke-linejoin="round"/>
<path d="M98.2871 65.4951H121.902" stroke="white" stroke-width="6.18712" stroke-miterlimit="10" stroke-linecap="round" stroke-linejoin="round"/>
<path d="M98.2871 82.6785H121.902" stroke="white" stroke-width="6.18712" stroke-miterlimit="10" stroke-linecap="round" stroke-linejoin="round"/>
<path d="M20.7852 156.97H44.3993" stroke="white" stroke-width="6.18712" stroke-miterlimit="10" stroke-linecap="round" stroke-linejoin="round"/>
<path d="M20.7852 174.154H44.3993" stroke="white" stroke-width="6.18712" stroke-miterlimit="10" stroke-linecap="round" stroke-linejoin="round"/>
</svg>
