<svg width="79" height="78" viewBox="0 0 79 78" fill="none" xmlns="http://www.w3.org/2000/svg">
<rect x="2.47273" y="1.92976" width="73.8252" height="73.8252" rx="6.11091" stroke="white" stroke-width="3.85952"/>
<path d="M46.7976 23.2656H31.4651C27.2311 23.2656 23.7988 26.6979 23.7988 30.9319V46.2644C23.7988 50.4984 27.2311 53.9307 31.4651 53.9307H46.7976C51.0316 53.9307 54.4639 50.4984 54.4639 46.2644V30.9319C54.4639 26.6979 51.0316 23.2656 46.7976 23.2656Z" stroke="white" stroke-width="3.0665" stroke-linecap="round" stroke-linejoin="round"/>
<path d="M45.2641 37.6314C45.4534 38.9074 45.2354 40.2106 44.6413 41.3556C44.0471 42.5007 43.1071 43.4292 41.9548 44.0092C40.8025 44.5891 39.4967 44.791 38.2231 44.5861C36.9495 44.3811 35.7729 43.7798 34.8608 42.8677C33.9486 41.9555 33.3473 40.7789 33.1424 39.5053C32.9374 38.2317 33.1393 36.9259 33.7193 35.7736C34.2992 34.6214 35.2278 33.6813 36.3728 33.0872C37.5178 32.493 38.821 32.2751 40.0971 32.4643C41.3987 32.6573 42.6037 33.2638 43.5342 34.1943C44.4646 35.1247 45.0711 36.3297 45.2641 37.6314Z" stroke="white" stroke-width="3.0665" stroke-linecap="round" stroke-linejoin="round"/>
<path d="M47.5625 30.1663H47.5825" stroke="white" stroke-width="3.88424" stroke-linecap="round" stroke-linejoin="round"/>
</svg>
