<svg width="70" height="71" viewBox="0 0 70 71" fill="none" xmlns="http://www.w3.org/2000/svg">
<path d="M19.4141 70.9321H50.5859C52.1083 70.9304 53.5679 70.3249 54.6444 69.2484C55.7209 68.1719 56.3264 66.7123 56.3281 65.1899V6.67432C56.3264 5.15193 55.7209 3.69239 54.6444 2.6159C53.5679 1.5394 52.1083 0.933866 50.5859 0.932129L19.4141 0.932129C17.8917 0.933866 16.4321 1.5394 15.3556 2.6159C14.2791 3.69239 13.6736 5.15193 13.6719 6.67432V65.1899C13.6736 66.7123 14.2791 68.1719 15.3556 69.2484C16.4321 70.3249 17.8917 70.9304 19.4141 70.9321ZM44.4522 2.57275L43.1189 5.04189C42.8383 5.59972 42.412 6.07133 41.8854 6.40682C41.3587 6.74231 40.7511 6.92921 40.127 6.94775H29.8725C29.2483 6.92919 28.6406 6.74229 28.1139 6.4068C27.5871 6.07132 27.1608 5.59973 26.88 5.04189L25.5467 2.57275H44.4522ZM15.3125 6.67432C15.3137 5.58687 15.7462 4.54429 16.5151 3.77535C17.284 3.00641 18.3266 2.57391 19.4141 2.57275H23.6797L25.4341 5.82119C25.8553 6.64002 26.4903 7.32959 27.2717 7.81676C28.0531 8.30394 28.9518 8.57057 29.8725 8.58838H40.127C41.0472 8.57014 41.9453 8.3033 42.7262 7.81615C43.5071 7.32899 44.1417 6.63966 44.5627 5.82119L46.317 2.57275H50.5859C51.6734 2.57391 52.716 3.00641 53.4849 3.77535C54.2538 4.54429 54.6863 5.58687 54.6875 6.67432V65.1899C54.6863 66.2774 54.2538 67.32 53.4849 68.0889C52.716 68.8578 51.6734 69.2903 50.5859 69.2915H19.4141C18.3266 69.2903 17.284 68.8578 16.5151 68.0889C15.7462 67.32 15.3137 66.2774 15.3125 65.1899V6.67432Z" fill="#5D48E0"/>
<path d="M2.68369 29.1385C2.91426 29.3837 3.19249 29.5792 3.50132 29.713C3.81015 29.8468 4.14306 29.9161 4.47963 29.9167H9.02307C9.24063 29.9167 9.44928 29.8303 9.60312 29.6764C9.75696 29.5226 9.84338 29.3139 9.84338 29.0964C9.84338 28.8788 9.75696 28.6702 9.60312 28.5163C9.44928 28.3625 9.24063 28.2761 9.02307 28.2761H4.47963C4.36763 28.2758 4.25686 28.2527 4.15416 28.208C4.05145 28.1633 3.95898 28.0981 3.88244 28.0163L1.6583 25.6445C1.58509 25.5641 1.49663 25.499 1.39805 25.4531C1.29947 25.4072 1.19275 25.3814 1.08409 25.3771C0.975436 25.3728 0.867011 25.3902 0.765124 25.4282C0.663237 25.4662 0.569921 25.524 0.490603 25.5984C0.411286 25.6728 0.34755 25.7622 0.303102 25.8615C0.258654 25.9607 0.234381 26.0678 0.231696 26.1765C0.22901 26.2852 0.247965 26.3934 0.287458 26.4947C0.326951 26.596 0.386193 26.6885 0.461741 26.7667L2.68369 29.1385Z" fill="#5D48E0"/>
<path d="M9.02314 41.9478H4.47971C4.1432 41.9483 3.81036 42.0175 3.50161 42.1514C3.19286 42.2852 2.91474 42.4807 2.68431 42.726L0.461815 45.0978C0.316749 45.2571 0.240192 45.4671 0.248685 45.6824C0.257178 45.8977 0.35004 46.101 0.507205 46.2484C0.66437 46.3958 0.873218 46.4754 1.08862 46.4701C1.30402 46.4648 1.50868 46.3749 1.65838 46.2199L3.88252 43.8476C3.9591 43.7659 4.05159 43.7008 4.1543 43.6562C4.257 43.6116 4.36774 43.5885 4.47971 43.5884H9.02314C9.2407 43.5884 9.44935 43.502 9.60319 43.3481C9.75703 43.1943 9.84346 42.9856 9.84346 42.7681C9.84346 42.5505 9.75703 42.3419 9.60319 42.188C9.44935 42.0342 9.2407 41.9478 9.02314 41.9478Z" fill="#5D48E0"/>
<path d="M0.820312 36.7524H9.02344C9.241 36.7524 9.44965 36.666 9.60349 36.5122C9.75732 36.3583 9.84375 36.1497 9.84375 35.9321C9.84375 35.7146 9.75732 35.5059 9.60349 35.3521C9.44965 35.1982 9.241 35.1118 9.02344 35.1118H0.820312C0.602752 35.1118 0.394102 35.1982 0.240264 35.3521C0.0864255 35.5059 0 35.7146 0 35.9321C0 36.1497 0.0864255 36.3583 0.240264 36.5122C0.394102 36.666 0.602752 36.7524 0.820312 36.7524Z" fill="#5D48E0"/>
<path d="M60.9766 29.9165H65.52C65.8565 29.916 66.1893 29.8467 66.4981 29.7129C66.8068 29.5791 67.085 29.3835 67.3154 29.1383L69.5379 26.7665C69.683 26.6072 69.7595 26.3972 69.751 26.1819C69.7425 25.9666 69.6497 25.7633 69.4925 25.6159C69.3353 25.4685 69.1265 25.3888 68.9111 25.3942C68.6957 25.3995 68.491 25.4894 68.3413 25.6443L66.1172 28.0167C66.0405 28.0985 65.9478 28.1637 65.8449 28.2083C65.742 28.2529 65.6311 28.2759 65.5189 28.2759H60.9766C60.759 28.2759 60.5504 28.3623 60.3965 28.5162C60.2427 28.67 60.1562 28.8786 60.1562 29.0962C60.1562 29.3138 60.2427 29.5224 60.3965 29.6763C60.5504 29.8301 60.759 29.9165 60.9766 29.9165Z" fill="#5D48E0"/>
<path d="M65.52 43.5884C65.6322 43.5885 65.7432 43.6116 65.8461 43.6562C65.949 43.7009 66.0416 43.7662 66.1183 43.8481L68.3413 46.2199C68.491 46.3749 68.6957 46.4648 68.9111 46.4701C69.1265 46.4754 69.3353 46.3958 69.4925 46.2484C69.6497 46.101 69.7425 45.8977 69.751 45.6824C69.7595 45.4671 69.683 45.2571 69.5379 45.0978L67.3159 42.726C67.0854 42.4808 66.8071 42.2853 66.4983 42.1514C66.1895 42.0176 65.8566 41.9483 65.52 41.9478H60.9766C60.759 41.9478 60.5504 42.0342 60.3965 42.188C60.2427 42.3419 60.1562 42.5505 60.1562 42.7681C60.1562 42.9856 60.2427 43.1943 60.3965 43.3481C60.5504 43.502 60.759 43.5884 60.9766 43.5884H65.52Z" fill="#5D48E0"/>
<path d="M69.1797 35.1118H60.9766C60.759 35.1118 60.5504 35.1982 60.3965 35.3521C60.2427 35.5059 60.1562 35.7146 60.1562 35.9321C60.1562 36.1497 60.2427 36.3583 60.3965 36.5122C60.5504 36.666 60.759 36.7524 60.9766 36.7524H69.1797C69.3972 36.7524 69.6059 36.666 69.7597 36.5122C69.9136 36.3583 70 36.1497 70 35.9321C70 35.7146 69.9136 35.5059 69.7597 35.3521C69.6059 35.1982 69.3972 35.1118 69.1797 35.1118Z" fill="#5D48E0"/>
<path d="M40.8516 62.0826H29.1484C28.9309 62.0826 28.7222 62.1691 28.5684 62.3229C28.4145 62.4767 28.3281 62.6854 28.3281 62.903C28.3281 63.1205 28.4145 63.3292 28.5684 63.483C28.7222 63.6368 28.9309 63.7233 29.1484 63.7233H40.8516C41.0691 63.7233 41.2778 63.6368 41.4316 63.483C41.5854 63.3292 41.6719 63.1205 41.6719 62.903C41.6719 62.6854 41.5854 62.4767 41.4316 62.3229C41.2778 62.1691 41.0691 62.0826 40.8516 62.0826Z" fill="#5D48E0"/>
<path d="M27.3925 41.4873C27.6101 41.4873 27.8187 41.4008 27.9726 41.247C28.1264 41.0932 28.2128 40.8845 28.2128 40.667V37.9763H32.4238V40.667C32.4238 40.8845 32.5102 41.0932 32.664 41.247C32.8179 41.4008 33.0265 41.4873 33.2441 41.4873C33.4616 41.4873 33.6703 41.4008 33.8241 41.247C33.978 41.0932 34.0644 40.8845 34.0644 40.667V33.8906C34.0858 33.3156 33.9477 32.7459 33.6653 32.2445C33.3828 31.7432 32.9671 31.3298 32.4642 31.0502C31.8072 30.6872 31.0689 30.4968 30.3183 30.4968C29.5677 30.4968 28.8294 30.6872 28.1724 31.0502C27.6708 31.3282 27.2559 31.7396 26.9735 32.2388C26.6911 32.7379 26.5522 33.3054 26.5722 33.8786V40.667C26.5722 40.8845 26.6586 41.0932 26.8125 41.247C26.9663 41.4008 27.175 41.4873 27.3925 41.4873ZM28.2128 33.866C28.1975 33.5821 28.2634 33.2997 28.4028 33.0518C28.5422 32.804 28.7492 32.601 28.9998 32.4666C29.4057 32.2504 29.8585 32.1374 30.3183 32.1374C30.7781 32.1374 31.2309 32.2504 31.6368 32.4666C31.8888 32.6024 32.0967 32.8075 32.2362 33.0575C32.3756 33.3076 32.4407 33.5923 32.4238 33.878V36.3357H28.2128V33.866Z" fill="#5D48E0"/>
<path d="M37.9248 39.8464C37.7072 39.8464 37.4986 39.9328 37.3448 40.0867C37.1909 40.2405 37.1045 40.4491 37.1045 40.6667C37.1045 40.8843 37.1909 41.0929 37.3448 41.2467C37.4986 41.4006 37.7072 41.487 37.9248 41.487H42.6061C42.8236 41.487 43.0323 41.4006 43.1861 41.2467C43.3399 41.0929 43.4264 40.8843 43.4264 40.6667C43.4264 40.4491 43.3399 40.2405 43.1861 40.0867C43.0323 39.9328 42.8236 39.8464 42.6061 39.8464H41.0857V32.1245H42.6061C42.8236 32.1245 43.0323 32.0381 43.1861 31.8842C43.3399 31.7304 43.4264 31.5218 43.4264 31.3042C43.4264 31.0866 43.3399 30.878 43.1861 30.7242C43.0323 30.5703 42.8236 30.4839 42.6061 30.4839H37.9248C37.7072 30.4839 37.4986 30.5703 37.3448 30.7242C37.1909 30.878 37.1045 31.0866 37.1045 31.3042C37.1045 31.5218 37.1909 31.7304 37.3448 31.8842C37.4986 32.0381 37.7072 32.1245 37.9248 32.1245H39.4451V39.8464H37.9248Z" fill="#5D48E0"/>
<path d="M19.7852 42.1872C19.5676 42.1872 19.3589 42.2736 19.2051 42.4275C19.0513 42.5813 18.9648 42.79 18.9648 43.0075C18.9648 43.2251 19.0513 43.4337 19.2051 43.5876C19.3589 43.7414 19.5676 43.8278 19.7852 43.8278H22.5234C22.6651 44.8022 23.1527 45.6931 23.897 46.3377C24.6413 46.9823 25.5927 47.3376 26.5773 47.3388H27.157V50.0294C27.157 50.247 27.2435 50.4556 27.3973 50.6094C27.5511 50.7633 27.7598 50.8497 27.9773 50.8497C28.1949 50.8497 28.4036 50.7633 28.5574 50.6094C28.7112 50.4556 28.7977 50.247 28.7977 50.0294V47.3388H34.1795V50.0294C34.1795 50.247 34.2659 50.4556 34.4197 50.6094C34.5736 50.7633 34.7822 50.8497 34.9998 50.8497C35.2173 50.8497 35.426 50.7633 35.5798 50.6094C35.7337 50.4556 35.8201 50.247 35.8201 50.0294V47.3388H41.2013V50.0294C41.2013 50.247 41.2878 50.4556 41.4416 50.6094C41.5954 50.7633 41.8041 50.8497 42.0216 50.8497C42.2392 50.8497 42.4478 50.7633 42.6017 50.6094C42.7555 50.4556 42.842 50.247 42.842 50.0294V47.3388H43.4216C44.4063 47.3376 45.3576 46.9823 46.102 46.3377C46.8463 45.6931 47.3338 44.8022 47.4756 43.8278H50.2138C50.4314 43.8278 50.64 43.7414 50.7939 43.5876C50.9477 43.4337 51.0341 43.2251 51.0341 43.0075C51.0341 42.79 50.9477 42.5813 50.7939 42.4275C50.64 42.2736 50.4314 42.1872 50.2138 42.1872H47.5232V36.8071H50.2138C50.4314 36.8071 50.64 36.7206 50.7939 36.5668C50.9477 36.413 51.0341 36.2043 51.0341 35.9867C51.0341 35.7692 50.9477 35.5605 50.7939 35.4067C50.64 35.2529 50.4314 35.1664 50.2138 35.1664H47.5232V29.7852H50.2138C50.4314 29.7852 50.64 29.6988 50.7939 29.5449C50.9477 29.3911 51.0341 29.1824 51.0341 28.9649C51.0341 28.7473 50.9477 28.5387 50.7939 28.3848C50.64 28.231 50.4314 28.1446 50.2138 28.1446H47.4751C47.3333 27.1702 46.8457 26.2793 46.1014 25.6347C45.3571 24.9901 44.4057 24.6348 43.4211 24.6336H42.8414V21.943C42.8414 21.7254 42.755 21.5168 42.6011 21.3629C42.4473 21.2091 42.2387 21.1227 42.0211 21.1227C41.8035 21.1227 41.5949 21.2091 41.441 21.3629C41.2872 21.5168 41.2008 21.7254 41.2008 21.943V24.6336H35.8201V21.943C35.8201 21.7254 35.7337 21.5168 35.5798 21.3629C35.426 21.2091 35.2173 21.1227 34.9998 21.1227C34.7822 21.1227 34.5736 21.2091 34.4197 21.3629C34.2659 21.5168 34.1795 21.7254 34.1795 21.943V24.6336H28.7982V21.943C28.7982 21.7254 28.7118 21.5168 28.5579 21.3629C28.4041 21.2091 28.1955 21.1227 27.9779 21.1227C27.7603 21.1227 27.5517 21.2091 27.3978 21.3629C27.244 21.5168 27.1576 21.7254 27.1576 21.943V24.6336H26.5779C25.5933 24.6348 24.6419 24.9901 23.8976 25.6347C23.1533 26.2793 22.6657 27.1702 22.5239 28.1446H19.7852C19.5676 28.1446 19.3589 28.231 19.2051 28.3848C19.0513 28.5387 18.9648 28.7473 18.9648 28.9649C18.9648 29.1824 19.0513 29.3911 19.2051 29.5449C19.3589 29.6988 19.5676 29.7852 19.7852 29.7852H22.4763V35.1664H19.7857C19.5681 35.1664 19.3595 35.2529 19.2057 35.4067C19.0518 35.5605 18.9654 35.7692 18.9654 35.9867C18.9654 36.2043 19.0518 36.413 19.2057 36.5668C19.3595 36.7206 19.5681 36.8071 19.7857 36.8071H22.4763V42.1883L19.7852 42.1872ZM24.1164 28.7341C24.1164 28.0814 24.3757 27.4555 24.8372 26.9939C25.2987 26.5324 25.9247 26.2732 26.5773 26.2732H43.4216C44.0743 26.2732 44.7003 26.5324 45.1618 26.9939C45.6233 27.4555 45.8826 28.0814 45.8826 28.7341V43.2372C45.8819 43.8897 45.6223 44.5152 45.161 44.9766C44.6996 45.4379 44.0741 45.6974 43.4216 45.6982H26.5779C25.9254 45.6974 25.2999 45.4379 24.8385 44.9766C24.3772 44.5152 24.1177 43.8897 24.117 43.2372L24.1164 28.7341Z" fill="#5D48E0"/>
</svg>
