<svg width="71" height="74" viewBox="0 0 71 74" fill="none" xmlns="http://www.w3.org/2000/svg">
<path d="M35.6232 7.37036H28.2528C27.5747 7.37036 27.0244 6.82004 27.0244 6.14197C27.0244 5.46389 27.5747 4.91357 28.2528 4.91357H35.6232C36.3012 4.91357 36.8516 5.46389 36.8516 6.14197C36.8516 6.82004 36.3012 7.37036 35.6232 7.37036Z" fill="#5D48E0"/>
<path d="M45.4508 73.7036H18.4261C15.0382 73.7036 12.2842 70.9471 12.2842 67.5617V50.3641C12.2842 49.6861 12.8345 49.1357 13.5126 49.1357C14.1906 49.1357 14.741 49.6861 14.741 50.3641V67.5617C14.741 69.5934 16.3944 71.2468 18.4261 71.2468H45.4508C47.4826 71.2468 49.136 69.5934 49.136 67.5617V25.7963C49.136 25.1182 49.6863 24.5679 50.3644 24.5679C51.0425 24.5679 51.5928 25.1182 51.5928 25.7963V67.5617C51.5928 70.9471 48.8387 73.7036 45.4508 73.7036Z" fill="#5D48E0"/>
<path d="M50.3644 9.82715C49.6863 9.82715 49.136 9.27683 49.136 8.59876V6.14197C49.136 4.11021 47.4826 2.45679 45.4508 2.45679H18.4261C16.3944 2.45679 14.741 4.11021 14.741 6.14197V8.59876C14.741 9.27683 14.1906 9.82715 13.5126 9.82715C12.8345 9.82715 12.2842 9.27683 12.2842 8.59876V6.14197C12.2842 2.75652 15.0382 0 18.4261 0H45.4508C48.8387 0 51.5928 2.75652 51.5928 6.14197V8.59876C51.5928 9.27683 51.0425 9.82715 50.3644 9.82715Z" fill="#5D48E0"/>
<path d="M30.7098 58.9631H20.8827C20.2046 58.9631 19.6543 58.4128 19.6543 57.7347C19.6543 57.0567 20.2046 56.5063 20.8827 56.5063H30.7098C31.3879 56.5063 31.9382 57.0567 31.9382 57.7347C31.9382 58.4128 31.3879 58.9631 30.7098 58.9631Z" fill="#5D48E0"/>
<path d="M38.0802 63.8767H20.8827C20.2046 63.8767 19.6543 63.3264 19.6543 62.6483C19.6543 61.9702 20.2046 61.4199 20.8827 61.4199H38.0802C38.7583 61.4199 39.3086 61.9702 39.3086 62.6483C39.3086 63.3264 38.7583 63.8767 38.0802 63.8767Z" fill="#5D48E0"/>
<path d="M42.9938 54.0496H20.8827C20.2046 54.0496 19.6543 53.4992 19.6543 52.8212C19.6543 52.1431 20.2046 51.5928 20.8827 51.5928H42.9938C43.6719 51.5928 44.2222 52.1431 44.2222 52.8212C44.2222 53.4992 43.6719 54.0496 42.9938 54.0496Z" fill="#5D48E0"/>
<path d="M17.1976 31.9382C13.8097 31.9382 11.0557 29.1817 11.0557 25.7963C11.0557 22.4108 13.8097 19.6543 17.1976 19.6543C20.5855 19.6543 23.3396 22.4108 23.3396 25.7963C23.3396 29.1817 20.5855 31.9382 17.1976 31.9382ZM17.1976 22.1111C15.1659 22.1111 13.5125 23.7645 13.5125 25.7963C13.5125 27.828 15.1659 29.4814 17.1976 29.4814C19.2294 29.4814 20.8828 27.828 20.8828 25.7963C20.8828 23.7645 19.2294 22.1111 17.1976 22.1111Z" fill="#5D48E0"/>
<path d="M17.1978 46.679C12.8886 46.679 8.75386 45.0526 5.55512 42.1044C5.22591 41.7998 5.08833 41.3404 5.19643 40.908C6.13983 37.0729 9.55968 34.395 13.5127 34.395H20.883C24.836 34.395 28.2558 37.0729 29.2017 40.9055C29.3098 41.3404 29.1698 41.7998 28.843 42.102C25.6418 45.0526 21.507 46.679 17.1978 46.679ZM7.79571 40.7999C13.1073 45.2245 21.2884 45.2245 26.6 40.7999C25.7155 38.4438 23.4577 36.8518 20.883 36.8518H13.5127C10.9379 36.8518 8.68015 38.4438 7.79571 40.7999Z" fill="#5D48E0"/>
<path d="M17.1975 46.6787C7.71677 46.6787 0 38.9644 0 29.4812C0 19.998 7.71677 12.2837 17.1975 12.2837C26.6783 12.2837 34.395 19.998 34.395 29.4812C34.395 38.9644 26.6783 46.6787 17.1975 46.6787ZM17.1975 14.7405C9.068 14.7405 2.45679 21.3517 2.45679 29.4812C2.45679 37.6107 9.068 44.2219 17.1975 44.2219C25.327 44.2219 31.9382 37.6107 31.9382 29.4812C31.9382 21.3517 25.327 14.7405 17.1975 14.7405Z" fill="#5D48E0"/>
<path d="M6.14246 53.9263C5.46438 53.9263 4.91406 53.4988 4.91406 52.8208V52.5751C4.91406 51.897 5.46438 51.3467 6.14246 51.3467C6.82053 51.3467 7.37085 51.897 7.37085 52.5751C7.37085 53.2531 6.82053 53.9263 6.14246 53.9263Z" fill="#5D48E0"/>
<path d="M6.14246 58.8398C5.46438 58.8398 4.91406 58.4123 4.91406 57.7342V57.4885C4.91406 56.8105 5.46438 56.2601 6.14246 56.2601C6.82053 56.2601 7.37085 56.8105 7.37085 57.4885C7.37085 58.1666 6.82053 58.8398 6.14246 58.8398Z" fill="#5D48E0"/>
<path d="M6.14246 63.7533C5.46438 63.7533 4.91406 63.3259 4.91406 62.6478V62.4021C4.91406 61.724 5.46438 61.1737 6.14246 61.1737C6.82053 61.1737 7.37085 61.724 7.37085 62.4021C7.37085 63.0802 6.82053 63.7533 6.14246 63.7533Z" fill="#5D48E0"/>
<path d="M54.8849 63.8765H52.8212C52.1431 63.8765 51.5928 63.3262 51.5928 62.6481C51.5928 61.97 52.1431 61.4197 52.8212 61.4197H53.8948L54.4967 58.6312C54.595 58.1694 54.9512 57.8082 55.4082 57.6977C56.5678 57.4176 57.6979 56.9459 58.7666 56.2948C59.1621 56.0491 59.6707 56.0565 60.0662 56.3071L62.4985 57.8623L64.0045 56.344L62.4493 53.9314C62.1938 53.5359 62.1889 53.0273 62.4321 52.6268C63.0832 51.5581 63.5549 50.428 63.8325 49.2684C63.943 48.8115 64.3017 48.4577 64.7612 48.3545L67.5594 47.7329V45.6275L64.7612 45.0059C64.3017 44.9027 63.943 44.5489 63.8325 44.092C63.5549 42.9324 63.0807 41.8022 62.4321 40.7335C62.1864 40.3331 62.1914 39.827 62.4469 39.4314L64.0045 36.9968L62.5009 35.4932L60.0662 37.0508C59.6731 37.3039 59.1646 37.3088 58.7666 37.0631C57.6954 36.412 56.5653 35.9403 55.4082 35.6603C54.9487 35.5497 54.595 35.1861 54.4967 34.7267L53.8948 31.9382H52.8212C52.1431 31.9382 51.5928 31.3879 51.5928 30.7098C51.5928 30.0318 52.1431 29.4814 52.8212 29.4814H54.8849C55.4622 29.4814 55.9634 29.8868 56.0838 30.4519L56.7397 33.4811C57.6389 33.7538 58.5209 34.1223 59.371 34.5817L62.0096 32.8939C62.496 32.5868 63.1323 32.6507 63.5401 33.061L66.4416 35.96C66.8494 36.3678 66.9182 37.0041 66.6062 37.4906L64.9184 40.1292C65.3778 40.9817 65.7463 41.8637 66.019 42.7653L69.0532 43.4385C69.6158 43.5638 70.0162 44.0625 70.0162 44.6374V48.7156C70.0162 49.2905 69.6158 49.7917 69.0532 49.9145L66.019 50.5877C65.7463 51.4893 65.3778 52.3713 64.9184 53.2214L66.6037 55.8354C66.9182 56.3194 66.8519 56.9582 66.4441 57.366L63.5426 60.2896C63.1348 60.6998 62.4985 60.7711 62.0096 60.4591L59.371 58.7713C58.5185 59.2307 57.6389 59.5992 56.7397 59.8719L56.0838 62.9011C55.9634 63.4711 55.4622 63.8765 54.8849 63.8765Z" fill="#5D48E0"/>
<path d="M55.4082 53.4793C54.9463 53.4793 54.5041 53.2165 54.2952 52.7693C54.0102 52.1551 54.2756 51.423 54.8898 51.138C56.6169 50.3322 57.7347 48.583 57.7347 46.679C57.7347 43.9691 55.531 41.7654 52.8212 41.7654C52.1554 41.7654 51.5141 41.8956 50.9122 42.1511C50.2907 42.4189 49.5684 42.1265 49.303 41.5C49.0377 40.876 49.3301 40.1562 49.9541 39.8909C50.8582 39.5051 51.8262 39.3086 52.8212 39.3086C56.8847 39.3086 60.1915 42.6154 60.1915 46.679C60.1915 49.5362 58.516 52.1601 55.9265 53.3639C55.757 53.4425 55.5826 53.4793 55.4082 53.4793Z" fill="#5D48E0"/>
<path d="M58.9629 22.1108H44.2222C41.5123 22.1108 39.3086 19.9071 39.3086 17.1973C39.3086 14.4874 41.5123 12.2837 44.2222 12.2837H58.9629C61.6727 12.2837 63.8765 14.4874 63.8765 17.1973C63.8765 19.9071 61.6727 22.1108 58.9629 22.1108ZM44.2222 14.7405C42.866 14.7405 41.7654 15.8436 41.7654 17.1973C41.7654 18.551 42.866 19.6541 44.2222 19.6541H58.9629C60.319 19.6541 61.4197 18.551 61.4197 17.1973C61.4197 15.8436 60.319 14.7405 58.9629 14.7405H44.2222Z" fill="#5D48E0"/>
</svg>
