<svg width="17" height="13" viewBox="0 0 17 13" fill="none" xmlns="http://www.w3.org/2000/svg">
<path d="M4.91036 12.279H4.91641C5.36219 12.279 5.76016 11.9986 5.90978 11.5784L8.52231 4.24733L11.0187 11.565C11.1638 11.9904 11.5629 12.2772 12.0125 12.2791H12.0168C12.4647 12.2791 12.8638 11.9962 13.0122 11.5732L16.5537 1.46984C16.7463 0.920281 16.4569 0.318405 15.9071 0.125608C15.3578 -0.0670478 14.7557 0.222357 14.5629 0.772201L12.0302 7.99737L9.54227 0.703858C9.26017 -0.223001 7.84464 -0.23158 7.55059 0.690357L4.93441 8.03168L2.44591 0.789921C2.25663 0.238952 1.65672 -0.0545322 1.10575 0.135312C0.554923 0.324593 0.26172 0.924639 0.451142 1.47547L3.91895 11.567C4.0645 11.9908 4.46219 12.2763 4.91036 12.279Z" fill="#5D48E0"/>
</svg>
