<svg width="72" height="62" viewBox="0 0 72 62" fill="none" xmlns="http://www.w3.org/2000/svg">
<path d="M52.3038 53.7488H38.7451L37.3265 52.3302L40.8864 48.7702C41.2775 48.379 41.4408 47.8227 41.3229 47.2821C41.2051 46.7417 40.8253 46.304 40.3071 46.1112L21.725 39.1955C21.0728 38.9526 20.3614 39.1075 19.869 39.6001C19.3767 40.0924 19.2217 40.8037 19.4646 41.4561L24.0396 53.7488H5.40928C3.58959 53.7488 2.10938 52.2686 2.10938 50.449V27.697C2.10938 27.1144 1.6373 26.6423 1.05469 26.6423C0.472078 26.6423 0 27.1144 0 27.697V50.449C0 53.4317 2.42663 55.8583 5.40928 55.8583H24.8247L26.3801 60.0378C26.5729 60.5564 27.0108 60.9363 27.5514 61.0541C28.0918 61.1721 28.6484 61.0087 29.0392 60.6176L32.5991 57.0578L36.223 60.6817C36.5657 61.0243 37.0157 61.1953 37.4657 61.1953C37.9159 61.1953 38.366 61.024 38.7087 60.6816L40.9504 58.44C41.6355 57.7546 41.6354 56.6395 40.9503 55.9542C40.9503 55.9542 40.9503 55.9542 40.9501 55.9542L40.8545 55.8586H52.3036C52.8863 55.8586 53.3583 55.3865 53.3583 54.8039C53.3583 54.2213 52.8862 53.7488 52.3038 53.7488ZM37.4659 58.9409L33.345 54.8201C33.139 54.6142 32.8691 54.5113 32.5991 54.5113C32.3293 54.5113 32.0593 54.6142 31.8532 54.8201L28.0896 58.5838L21.7094 41.4404L38.8526 47.8207L35.0889 51.5844C34.677 51.9965 34.677 52.6641 35.089 53.076L39.2099 57.1968L37.4659 58.9409Z" fill="#5D48E0"/>
<path d="M66.5907 0.932129H62.9033C62.3206 0.932129 61.8486 1.40421 61.8486 1.98682C61.8486 2.56943 62.3206 3.0415 62.9033 3.0415H66.5907C68.4103 3.0415 69.8906 4.52172 69.8906 6.34141V12.9495H2.10938V6.34141C2.10938 4.52186 3.58959 3.0415 5.40928 3.0415H58.0254C58.608 3.0415 59.0801 2.56943 59.0801 1.98682C59.0801 1.40421 58.608 0.932129 58.0254 0.932129H5.40928C2.42663 0.932129 0 3.35875 0 6.34141V22.9509C0 23.5335 0.472078 24.0056 1.05469 24.0056C1.6373 24.0056 2.10938 23.5335 2.10938 22.9509V15.059H69.8906V50.449C69.8906 52.2686 68.4104 53.7489 66.5907 53.7489H57.3574C56.7748 53.7489 56.3027 54.221 56.3027 54.8036C56.3027 55.3862 56.7748 55.8583 57.3574 55.8583H66.5907C69.5734 55.8583 72 53.4317 72 50.449V6.34141C72 3.35875 69.5734 0.932129 66.5907 0.932129Z" fill="#5D48E0"/>
<path d="M6.98926 7.99604C6.98926 9.07506 7.86395 9.94975 8.94282 9.94975C10.0217 9.94975 10.8964 9.07506 10.8964 7.99604C10.8964 6.91703 10.0217 6.04248 8.94282 6.04248C7.86395 6.04248 6.98926 6.91703 6.98926 7.99604Z" fill="#5D48E0"/>
<path d="M12.999 7.9958C12.999 9.07481 13.8737 9.9495 14.9526 9.9495C16.0315 9.9495 16.9061 9.07481 16.9061 7.9958C16.9061 6.91678 16.0315 6.04224 14.9526 6.04224C13.8737 6.04224 12.999 6.91678 12.999 7.9958Z" fill="#5D48E0"/>
<path d="M19.0088 7.9958C19.0088 9.07481 19.8835 9.9495 20.9624 9.9495C22.0412 9.9495 22.9159 9.07481 22.9159 7.9958C22.9159 6.91678 22.0412 6.04224 20.9624 6.04224C19.8835 6.04224 19.0088 6.91678 19.0088 7.9958Z" fill="#5D48E0"/>
<path d="M12.9104 38.279H12.9164C13.3622 38.279 13.7602 37.9986 13.9098 37.5784L16.5223 30.2473L19.0187 37.565C19.1638 37.9904 19.5629 38.2772 20.0125 38.2791H20.0168C20.4647 38.2791 20.8638 37.9962 21.0122 37.5732L24.5537 27.4698C24.7463 26.9203 24.4569 26.3184 23.9071 26.1256C23.3578 25.933 22.7557 26.2224 22.5629 26.7722L20.0302 33.9974L17.5423 26.7039C17.2602 25.777 15.8446 25.7684 15.5506 26.6904L12.9344 34.0317L10.4459 26.7899C10.2566 26.239 9.65672 25.9455 9.10575 26.1353C8.55492 26.3246 8.26172 26.9246 8.45114 27.4755L11.919 37.567C12.0645 37.9908 12.4622 38.2763 12.9104 38.279Z" fill="#5D48E0"/>
<path d="M32.425 38.2792H32.4311C32.8768 38.2792 33.2748 37.9988 33.4244 37.5786L36.037 30.2475L38.5333 37.5652C38.6785 37.9906 39.0776 38.2773 39.5271 38.2793H39.5315C39.9794 38.2793 40.3785 37.9964 40.5268 37.5734L44.0683 27.47C44.261 26.9205 43.9716 26.3186 43.4217 26.1258C42.8725 25.9331 42.2703 26.2225 42.0775 26.7724L39.5448 33.9976L37.0569 26.704C36.7747 25.777 35.3593 25.7686 35.0652 26.6905L32.4491 34.0319L29.9606 26.7902C29.7713 26.2393 29.1711 25.9458 28.6204 26.1356C28.0696 26.3249 27.7764 26.925 27.9658 27.4758L31.4336 37.5673C31.5793 37.991 31.977 38.2765 32.425 38.2792Z" fill="#5D48E0"/>
<path d="M51.6226 38.279H51.6285C52.0742 38.279 52.4722 37.9986 52.6218 37.5784L55.2344 30.2473L57.7307 37.565C57.8759 37.9904 58.275 38.2772 58.7245 38.2791H58.7289C59.1768 38.2791 59.5759 37.9962 59.7242 37.5732L63.2656 27.4698C63.4583 26.9203 63.1689 26.3184 62.619 26.1256C62.0696 25.933 61.4676 26.2224 61.2748 26.7722L58.7423 33.9974L56.2543 26.7039C55.9724 25.777 54.5566 25.7684 54.2626 26.6904L51.6465 34.0317L49.1578 26.7901C48.9685 26.2392 48.3693 25.9459 47.8177 26.1355C47.2668 26.3247 46.9736 26.9248 47.1631 27.4756L50.631 37.5671C50.7767 37.9908 51.1742 38.2763 51.6226 38.279Z" fill="#5D48E0"/>
</svg>
