<svg width="162" height="26" viewBox="0 0 162 26" fill="none" xmlns="http://www.w3.org/2000/svg">
<path d="M13 0.932129L17.017 9.07013L26 10.3831L19.5 16.7141L21.034 25.6581L13 21.4331L4.966 25.6581L6.5 16.7141L0 10.3831L8.983 9.07013L13 0.932129Z" fill="#FAC300"/>
<path d="M47 0.932129L51.017 9.07013L60 10.3831L53.5 16.7141L55.034 25.6581L47 21.4331L38.966 25.6581L40.5 16.7141L34 10.3831L42.983 9.07013L47 0.932129Z" fill="#FAC300"/>
<path d="M81 0.932129L85.017 9.07013L94 10.3831L87.5 16.7141L89.034 25.6581L81 21.4331L72.966 25.6581L74.5 16.7141L68 10.3831L76.983 9.07013L81 0.932129Z" fill="#FAC300"/>
<path d="M115 0.932129L119.017 9.07013L128 10.3831L121.5 16.7141L123.034 25.6581L115 21.4331L106.966 25.6581L108.5 16.7141L102 10.3831L110.983 9.07013L115 0.932129Z" fill="#FAC300"/>
<path d="M149 0.932129L153.017 9.07013L162 10.3831L155.5 16.7141L157.034 25.6581L149 21.4331L140.966 25.6581L142.5 16.7141L136 10.3831L144.983 9.07013L149 0.932129Z" fill="#FAC300"/>
</svg>
